/* XPM */
static char *bitcoin__[] = {
/* columns rows colors chars-per-pixel */
"32 32 64 1 ",
"  c #87451D",
". c #88471F",
"X c #884720",
"o c #8D4F29",
"O c #8E512B",
"+ c #91542F",
"@ c #925632",
"# c #945935",
"$ c #965C39",
"% c #985F3D",
"& c #99613F",
"* c #9B6442",
"= c #9F6949",
"- c #A16D4D",
"; c #A26F50",
": c #A47153",
"> c #A77659",
", c #A7785A",
"< c #A97A5D",
"1 c #AB7D62",
"2 c #AE8166",
"3 c #AF8469",
"4 c #B1866C",
"5 c #B2886E",
"6 c #B58D75",
"7 c #B78F78",
"8 c #B79078",
"9 c #B9937B",
"0 c #BC9781",
"q c #BE9A84",
"w c #BF9D88",
"e c #C09E89",
"r c #C3A18D",
"t c #C5A591",
"y c #C7A996",
"u c #C8A997",
"i c #CAAD9C",
"p c #CCB09F",
"a c #CDB2A1",
"s c #D1B7A9",
"d c #D3BBAC",
"f c #D6BFB1",
"g c #D7C1B3",
"h c #D8C3B6",
"j c #DAC7BB",
"k c #DCC9BD",
"l c #DFCDC3",
"z c #E0CFC4",
"x c #E1D0C6",
"c c #E5D6CE",
"v c #E7D9D1",
"b c #E9DDD6",
"n c #EADFD8",
"m c #EDE3DC",
"M c #EFE7E2",
"N c #F0E7E2",
"B c #F1EAE5",
"V c #F4EDEA",
"C c #F5F0ED",
"Z c #F7F3F1",
"A c #F9F6F4",
"S c #FBF8F7",
"D c #FFFEFE",
"F c None",
/* pixels */
"FFFFFFFFFFFF@@@@@@@@FFFFFFFFFFFF",
"FFFFFFFFF$@&>6qee06>&@$FFFFFFFFF",
"FFFFFFF*@-ept931139tpw-@&FFFFFFF",
"FFFFFF$$ea5*##$$$$##&2aw%$FFFFFF",
"FFFFF#-s9##*&##@#@$$<p*9s-#FFFFF",
"FFFF#>f:@*&@=6yssy5;nD1 :f<@FFFF",
"FFF$-d=#*#:sCDDDDDDCm6*p&*f;$FFF",
"FF&%s>#*@qADDDDDDDDDDhnD2+:s%&FF",
"FF@e9+*@uDDDDBjphMZDvmDi#*@8r@FF",
"F$;a$*#wDDDBq=O*nA10BZlSq@*#a;$F",
"F@e5#$>ADDn-##:BD4$vSjADC;&#3r@F",
"F&p&*@hDDN-$$;BD2$mD9-CDDd@**p*F",
"#<t#%;ADD7#$;ND2$mD9#@0DDC-&@r1@",
"+69##qDDm*$;ND2$mD9@*&*MDD9@#69@",
"@q2$@sDDso>ND2$mD9@*&*$0ff6$$1q@",
"@r1$#jDDe*BD2$mD9o*&&&&#@@$&$<t@",
"@r1$#jDDunD2$mD9XemnmnnmmBp#$<t@",
"@q2#@fDxBD2$mD9opDDDDDDDDDs@$2e@",
"+79##wbMS1$mD9o2zkjkjjkSDD9##89+",
"@<t##,CZx5bD9@*&#@##$o3DDA>%@r<@",
"F*p%<BSxDMv9#*&&**&*&*mDDj@*&p*F",
"F@r1rS0BDDk$#&*****#*xDDS<$$3r@F",
"F#-a$>-cDDDn3$@@@@$4mDDDy@*#a:$F",
"FF@r8.sBhDDDDcpwqpvDDSDs#*@6r@FF",
"FF&&s;*3#pDDDDDDDDDDDDu#*$-s&&FF",
"FFF$;f*+*@2xDDDDDDDSz1@*$*f;#FFF",
"FFFF#,f:@*##<tgllfr>#$*#-f<#FFFF",
"FFFFF#;s9##*$@@#$@#$*##6d:#FFFFF",
"FFFFFF$&ra4*##$$$$##*3ar&$FFFFFF",
"FFFFFFF&@-eat911<29rae;@%FFFFFFF",
"FFFFFFFFF$@*<7qrrq6<*@#FFFFFFFFF",
"FFFFFFFFFFFF@+@@@@@#FFFFFFFFFFFF"
};
