/* XPM */
static char *bitcoin__[] = {
/* columns rows colors chars-per-pixel */
"16 16 138 2 ",
"   c #88471F",
".  c #894720",
"X  c #8A4922",
"o  c #8E502A",
"O  c #8E502B",
"+  c #8E512B",
"@  c #90532E",
"#  c #90532F",
"$  c #91542F",
"%  c #915530",
"&  c #925631",
"*  c #955B38",
"=  c #98603E",
"-  c #996240",
";  c #9A6240",
":  c #9A6342",
">  c #9B6342",
",  c #9B6442",
"<  c #9B6443",
"1  c #9B6543",
"2  c #9C6544",
"3  c #9C6645",
"4  c #9E6949",
"5  c #9F6949",
"6  c #9E6A49",
"7  c #9F6A49",
"8  c #9F6A4A",
"9  c #9F6A4B",
"0  c #9F6B4B",
"q  c #9F6C4C",
"w  c #A06B4C",
"e  c #A06C4C",
"r  c #A06C4D",
"t  c #A16D4D",
"y  c #A16D4E",
"u  c #A16E4E",
"i  c #A16E4F",
"p  c #A26E4F",
"a  c #A26F50",
"s  c #A37051",
"d  c #A37151",
"f  c #A37152",
"g  c #A47254",
"h  c #A47354",
"j  c #A57355",
"k  c #A57456",
"l  c #A57557",
"z  c #A67457",
"x  c #A67557",
"c  c #A67558",
"v  c #A67659",
"b  c #A77659",
"n  c #A7775A",
"m  c #A97A5E",
"M  c #A97B5E",
"N  c #AA7B5E",
"B  c #AA7B5F",
"V  c #AC7F63",
"C  c #AC7F64",
"Z  c #AC8064",
"A  c #AD8065",
"S  c #AD8165",
"D  c #AD8166",
"F  c #AE8166",
"G  c #AE8267",
"H  c #AF8268",
"J  c #AE8368",
"K  c #B0856A",
"L  c #B0856B",
"P  c #B1866C",
"I  c #B2876D",
"U  c #B2876E",
"Y  c #B2886E",
"T  c #B2886F",
"R  c #B3896F",
"E  c #B38970",
"W  c #B48A71",
"Q  c #B48B72",
"!  c #B58C73",
"~  c #B58D74",
"^  c #B68E76",
"/  c #B78F77",
"(  c #B78F78",
")  c #BB9680",
"_  c #BE9B86",
"`  c #BF9C88",
"'  c #C09E89",
"]  c #C19E8A",
"[  c #C2A08C",
"{  c #C2A18D",
"}  c #C5A592",
"|  c #C7A895",
" . c #C8AA97",
".. c #C9AC9A",
"X. c #CAAD9B",
"o. c #CBAE9D",
"O. c #CBAF9D",
"+. c #CBAF9E",
"@. c #CDB2A1",
"#. c #CFB4A5",
"$. c #D0B6A7",
"%. c #D1B7A8",
"&. c #D2B9AA",
"*. c #D2B9AB",
"=. c #D5BEB1",
"-. c #D7C1B4",
";. c #D7C2B5",
":. c #D8C3B6",
">. c #DBC7BB",
",. c #DBC8BC",
"<. c #DCC9BD",
"1. c #DDCABE",
"2. c #DFCDC3",
"3. c #E2D2C8",
"4. c #E3D4CB",
"5. c #E4D5CC",
"6. c #E4D6CD",
"7. c #E7D9D1",
"8. c #E9DDD5",
"9. c #E9DDD6",
"0. c #EEE4DE",
"q. c #EFE6E0",
"w. c #F0E7E2",
"e. c #F0E8E3",
"r. c #F3ECE8",
"t. c #F5EFEB",
"y. c #F6F1EE",
"u. c #F7F3F1",
"i. c #F8F5F2",
"p. c #F8F5F3",
"a. c #F9F6F4",
"s. c #FBF9F8",
"d. c #FCFAF9",
"f. c #FDFCFC",
"g. c #FEFEFE",
"h. c #FFFEFE",
"j. c gray100",
"k. c None",
/* pixels */
"k.k.k.k.k.7 m C C m r k.k.k.k.k.",
"k.k.k.: L R v r r v J L 2 k.k.k.",
"k.k.7 ^ s @ 7 L L r X.B R e k.k.",
"k.= ^ : < <.g.g.f.g.4.| h W 2 k.",
"k.L a 3 e.g.$.( 8.:.y.w.7 r P k.",
"7 R $ <.g.H O <._ &.%.p.>.@ R r ",
"B v a g.+.O 6.[ :.o.  &.g.r v m ",
"D 7 ^ g.R <.[ =.} & 2 f ) 7 s Z ",
"D 0 ^ u.7.] :.| ] p.t.q.0.D r D ",
"m j j p.#.&.O.* ] ] ~ 4.g.f x B ",
"r D X.8.d.X.X * O   j d.2.$ R e ",
"k.R n | s.p.+.D D @.f.r.w r P k.",
"k.> W h r 6.g.g.g.g.3.7 = ^ : k.",
"k.k.w W r $ j / / h & r ^ w k.k.",
"k.k.k.3 P R j w 7 j P P 2 k.k.k.",
"k.k.k.k.k.r m C C V r k.k.k.k.k."
};
