/* XPM */
static char *huntcoin__[] = {
/* columns rows colors chars-per-pixel */
"128 128 64 1 ",
"  c #8F522D",
". c #90532F",
"X c #925632",
"o c #945935",
"O c #965D3A",
"+ c #985F3D",
"@ c #99613F",
"# c #9A6341",
"$ c #9D6847",
"% c #9E6A4A",
"& c #A06D4E",
"* c #A26F50",
"= c #A47254",
"- c #A67659",
"; c #A7785B",
": c #A97A5D",
"> c #AB7E62",
", c #AD8166",
"< c #AF8369",
"1 c #B0866C",
"2 c #B2886F",
"3 c #B58D74",
"4 c #B78F78",
"5 c #B79077",
"6 c #B79079",
"7 c #B9937C",
"8 c #BB9781",
"9 c #BD9A84",
"0 c #BF9D88",
"q c #C09E8A",
"w c #C2A28E",
"e c #C5A592",
"r c #C7A896",
"t c #C8AA97",
"y c #CAAE9C",
"u c #CCB09F",
"i c #CEB3A3",
"p c #D0B6A7",
"a c #D0B7A8",
"s c #D2BAAC",
"d c #D5BEB1",
"f c #D6C1B3",
"g c #D8C3B6",
"h c #DAC6BA",
"j c #DCC9BE",
"k c #DECDC2",
"l c #E0CFC5",
"z c #E1D0C6",
"x c #E3D5CB",
"c c #E5D8CF",
"v c #E6D9D1",
"b c #E9DDD6",
"n c #EADFD8",
"m c #ECE2DC",
"M c #EFE6E1",
"N c #F0E7E3",
"B c #F1EAE5",
"V c #F3EDEA",
"C c #F6F1EE",
"Z c #F7F3F0",
"A c #F9F6F4",
"S c #FAF8F7",
"D c #FFFFFE",
"F c None",
/* pixels */
"FFFFFFFFFFFFFFFFFFFFFFFFFFFFFFFFFFFFFFFFFFFFFFFFFFFFFFFF@@@@@@@@@@@@@@@@FFFFFFFFFFFFFFFFFFFFFFFFFFFFFFFFFFFFFFFFFFFFFFFFFFFFFFFF",
"FFFFFFFFFFFFFFFFFFFFFFFFFFFFFFFFFFFFFFFFFFFFFFFFFF@@@@@@@@@@@@@@@@@@@@@@@@@@@@FFFFFFFFFFFFFFFFFFFFFFFFFFFFFFFFFFFFFFFFFFFFFFFFFF",
"FFFFFFFFFFFFFFFFFFFFFFFFFFFFFFFFFFFFFFFFFFFFFF@@@@@@@@@@@@@@@@@@@@@@+#+#@@@@@@@@@@FFFFFFFFFFFFFFFFFFFFFFFFFFFFFFFFFFFFFFFFFFFFFF",
"FFFFFFFFFFFFFFFFFFFFFFFFFFFFFFFFFFFFFFFFFFF@@@@@@@@@@@@@@@@+@@@@@@@@#+#+@@@@@@@@@@@@@FFFFFFFFFFFFFFFFFFFFFFFFFFFFFFFFFFFFFFFFFFF",
"FFFFFFFFFFFFFFFFFFFFFFFFFFFFFFFFFFFFFFFF@@@@@@@@@@@@@@#######+@@######$###@+@#@@@@@@@@@@FFFFFFFFFFFFFFFFFFFFFFFFFFFFFFFFFFFFFFFF",
"FFFFFFFFFFFFFFFFFFFFFFFFFFFFFFFFFFFFFF@@@@@@@@@#@@###@OOO..OOOOOOOOOX.X.OO+@##@@@#@@@@@@@@FFFFFFFFFFFFFFFFFFFFFFFFFFFFFFFFFFFFFF",
"FFFFFFFFFFFFFFFFFFFFFFFFFFFFFFFFFFFF@@@@@@@@@@###@O..@*>4wpdkklxlllkgar7>*@O.o+###@@@@@@@@@@FFFFFFFFFFFFFFFFFFFFFFFFFFFFFFFFFFFF",
"FFFFFFFFFFFFFFFFFFFFFFFFFFFFFFFFFF@@@@@@@@@###O.O$,ehmZDDDDDDDDDDDDDDDDDDSmjr<%O.O@##@@@@@@@@@FFFFFFFFFFFFFFFFFFFFFFFFFFFFFFFFFF",
"FFFFFFFFFFFFFFFFFFFFFFFFFFFFFFFF@@@@@@@@@##OXO;qhVDDDDDMlfie87777777eudlmSDDDDZkw:@.+##@@@@@@@@@FFFFFFFFFFFFFFFFFFFFFFFFFFFFFFFF",
"FFFFFFFFFFFFFFFFFFFFFFFFFFFFFF@@@@@@@@##@oo=wxSDDDMge2*#OXX..oXoXXoX.X.O#=1wfmDDDDve-Oo@##@@@@@@@@FFFFFFFFFFFFFFFFFFFFFFFFFFFFFF",
"FFFFFFFFFFFFFFFFFFFFFFFFFFFFF@@@@@##@##o+2hSDDSlw:#o.OO@############$###@OO..@;qjZDDSk5@X@##@@@@@@@FFFFFFFFFFFFFFFFFFFFFFFFFFFFF",
"FFFFFFFFFFFFFFFFFFFFFFFFFFF@@@@@@@@#@.#8bDDSx0*O.O@####@@@@#@@#@@@@@@@@@@#@#$@O.o*8jSDDmw$.@#@@@@@@@@FFFFFFFFFFFFFFFFFFFFFFFFFFF",
"FFFFFFFFFFFFFFFFFFFFFFFFFF@@@@@@@##.#0mDDVi:O.O###@@@@@@@@@@@@@@@@@@@@@@@@@@@@###O.O-yBDDBe$.##@@@@@@@FFFFFFFFFFFFFFFFFFFFFFFFFF",
"FFFFFFFFFFFFFFFFFFFFFFFFF@@@@@@@#OO5nDDNw%.O###@@#@@@@@@@@@@@@@@@@@@@@@@@@@@@@@@@#$#OX#9mDDM9+O##@@@@@@FFFFFFFFFFFFFFFFFFFFFFFFF",
"FFFFFFFFFFFFFFFFFFFFFFF@@@@@@@#@.>lDDNw$.+$#@@@@@@@@@@@@@@@@@@@@@@@@@@@@@@@@@@@@@@@@#$@X@9mDDx,.@@@@@@@@@FFFFFFFFFFFFFFFFFFFFFFF",
"FFFFFFFFFFFFFFFFFFFFFF@@@@@@@#O+tADZy$.##@@@@@@@@@@@@@@@@@@@@@@@@@@@@@@@@@@@@@@@@@@@+O##@X@wZDSp#O#@@@@@@@FFFFFFFFFFFFFFFFFFFFFF",
"FFFFFFFFFFFFFFFFFFFFF@@@@@@@#.:vDDj=.@#@@@@@@@@@@@@@@@@@@@@@@@@@@@@@@@@@@@@@@@@@@@#@@:O###@X*sDDm1.###@@@@@FFFFFFFFFFFFFFFFFFFFF",
"FFFFFFFFFFFFFFFFFFFF@@@@@@@@OqADB7OO#@@@@@@@@@@@@@@@@@@@@@@@@@@@@@@@@@@@@@@@@@@@@@#.uD7.#@@#OO2mDStOO#@#@@@@FFFFFFFFFFFFFFFFFFFF",
"FFFFFFFFFFFFFFFFFFF@@@@@@#O#fDDj*.##@@@@@@@@@@@@@@@@@@@@@@@@@@#@@@@@@@@@@@@@@@@@@#oyDDD8.$@@@#O$dDDk$O##@@@@@FFFFFFFFFFFFFFFFFFF",
"FFFFFFFFFFFFFFFFFF@@@@@##O*vDAwOO#@@@@@@@@@@@@@@@@@@@@@#@@#@#########@@@@@@@@@@##.iDDDDD7.#@@@@O.8ZDm-o#@@@@@@FFFFFFFFFFFFFFFFFF",
"FFFFFFFFFFFFFFFFF@@@@@@#X>BDB,.##@@@@@@@@@@@@@@@@@@@@#####+OOO...OOOO+#####@@###.yDDDDDDDqO@@@@##X:mDZ2X#@@@@@@FFFFFFFFFFFFFFFFF",
"FFFFFFFFFFFFFFFF@@@@@@$.1ZDv*O#@@@@@@@@@@@@@@@@@@@###Oo..@$*:<3331>:*$O..O+###+.iDDDDDDSDyO@@@@@##o$kDA7o#@@@@@@FFFFFFFFFFFFFFFF",
"FFFFFFFFFFFFFFF@@@@@@#.7SDj#O#@@@@@@@@@@@@@@@@@@#@O.O*1rgvVADDDDDDDDABxfw,%o.+#sDDDDDDDDr.@@@@@@@@#+OsDDwX#@@@@@@FFFFFFFFFFFFFFF",
"FFFFFFFFFFFFFF@@@@@@#O7SDdO+#@@@@@@@@@@@@@@@@##@.O:rlZDDDDDDDDDDDDDDDDDDDDVjq*%jSDDSDDDr.#@@#@@@@@@#@OyDDw.#@@@@@@FFFFFFFFFFFFFF",
"FFFFFFFFFFFFFF@@@@+#X2SDaO@#@@@@@@@@@@@@@@###O.%wvDDDDDSDDDDDDDDDDDDDDDDDDDDDSk3>tVDDDrX#@@#OOO@@@@@##XtDD9.##@@@@@FFFFFFFFFFFFF",
"FFFFFFFFFFFFF@@@@@#O,ZDsO@#@@@@@@@@@@@@@@##OX:sZDDDDDDDDDDDDDDDDDDDDDDDDDDDDDDDDmw:wZt.##@#X,l&O#@@@+##XyDS3o#@@@@@FFFFFFFFFFFFF",
"FFFFFFFFFFFF@@@@@#O*BDjOO@@@@@@@@@@@@@@@#+.-fSDDDDDDDDDDDDDDDDDDDDDDDDDDDDDDDDDDDDZe=.+###X>VDb%O#+@@@##oaDZ>o#@@@@@FFFFFFFFFFFF",
"FFFFFFFFFFF@@@@@#+$bDc@@@@@@@@@@@@@@@@##.$iADDDDDDDDDDDDDDDDDDDDDDDDDDDDDDDDDDDDDDDDVq+O#X>VDSDn$O#@@@+#+OhDM*O#@@@@@FFFFFFFFFFF",
"FFFFFFFFFFF@@@@@#OfDM&O@@@@@@@@@@@@@@##.4BDDDDDDDDDDDDDDDDDDDDDDDDDDDDDDDDDDDDDDDDDDDDv1X>VDDDDDb*+@@@@@#+#bDl@##@@@@FFFFFFFFFFF",
"FFFFFFFFFF@@@@@#.eDA>O@@@@@@@@@@@@@@#O#dDDDDDDDDDDDDDDDDDDDDDDDDDDDDDDDDDDDDDDDDDDDDDSDs-CDDDDDSDdo#@@@@@#O=VDi.#@@@@@FFFFFFFFFF",
"FFFFFFFFF@@@@@#O,SD0.$@@@@@@@@@@@@@$X:mDDDDDDDDDDDDDDDDDDDDDDDDDDDDDDDDDDDDDDDDDDDDDDDd:VDDDDDSDx%+#@@@@@@$.3DD3o#@@@@@FFFFFFFFF",
"FFFFFFFFF@@@@@+#bDfo#@@@@@@@@@@@@##.7ADSDDDDDDDDDDDDDDDDDDDDDDDDDDDDDDDDDDDDDDDDDDDDDd:VDDDDDDDv$O#@@@@@@@@$.iDM*O#@@@@FFFFFFFFF",
"FFFFFFFF@@@@@#.uDM%+#@@@@@@@@@@@##.rDDDDDDDDDDDDDDDDDDDDDDDSDDDDDDDDDDDDDDDDDDDDDDDDd;BDDDDDDDv#O#@@@@@@@@@#+@vDfo#@@@@@FFFFFFFF",
"FFFFFFFF@@@@#O,SD3o#@@@@@@@@@@@#@XiDDDDDDDDDDDDDDDDDDDDDDDDDDDDSSDDDDDDDDDDDDDDDDDDf:VDDDDDDDxOO#@@@@@@@@@@@#O>SD3O#@@@@FFFFFFFF",
"FFFFFFF@@@@##OxDdo#@@@@@@@@@@@##XiDDDDDDDDDDDDDDDDDDDDDDZxse3,;--:>9wplZDDDDDDDDSDf;VDDDDDDDk>6O#@@@@@@@@@@@+#XuDm#+#@@@@FFFFFFF",
"FFFFFFF@@@@#.8DZ*O#@@@@@@@@@@@#oyDSDDDDDDDDDDDDDDSDDDBs4*OX..OOOO.tMjpw38aZDDDDDDf;VDDDDDDDl-mD6.$@@@@@@@@@@@@@$mDr.#@@@@FFFFFFF",
"FFFFFF@@@@#@$mDw.$@@@@@@@@@@@#.qDDDDDDDDDDDDDDDDDDDx7$.O+#######OiDDDDDSvy=qnDDDf:VDDDDDSDl-mDDA<o#@@@@@@@@@@@$.7DZ*O##@@@FFFFFF",
"FFFFFF@@@@#XrDn#+@@@@@@@@@@+#O2SDDDDDDDDDDDDDDDDDx1Oo@###@@@@##XiDSDDDSDDiO.@6Bf:VDDDDDDDl-mDDDDV=O#@@@@@@@@@@@#OxDa.#@@@@FFFFFF",
"FFFFF@@@@#@%BD8o##@@@@@@@@@#O*BDDDDDDDDDDDDDDDDB7OO#@@@@@@@@#@oiDDDDDDDDw.##@oO>BDDDDDDDl-mDDDDDDv+@#@@@@@@@@@@#X2DZ-O#@@@@FFFFF",
"FFFFF@@@@#.wDb#@@@@@@@@@@@@#OlDDDDDDDDDDDDDDDDd$X@@@@@@@@@@@@oiDDDDDDDDe.##@#o>VDDDDDDDk-mDDDDDDDDpX#@@@@@@@@@@@#OlDiX#@@@@FFFFF",
"FFFF@@@@@@#mD9.$@@@@@@@@@##.eDDDDDDDDDDDDDDDA0.@#@@@@@@@@@##OiDDDDDDDDw.#@@#o>VDDDDDDDk-mDDDDDDDDDD2O@+@@@@@@@@@@O2DV*O#@@@@FFFF",
"FFFF@@@@#o7DM#@@@@@@@@@@@#O;ADDDDDDDDDDDDDDB,.##@@@@@@@@@@#.iDSDDDDDDwX$@##X>CDDDDDDDk-mDDDDDDDDDDDM$@#@@@@@@@@@@#+cDwX#@@@@FFFF",
"FFFF@@@@@OkDt.#@@@@@@@@@@@OkDDDDDDDDDDDDDDB=O#@@@@@@@@@@@#OiDDDDDDDDw.#+##X>CDDDDDSDx>MDDDDDDDDDDDDDi.#@@@@@@@@@@#.9Dn#@@@@@FFFF",
"FFF@@@@#O:DS-O@@@@@@@@@@@O5DDDDDDDDDDDDDDB=O#@@@@@@@@@@##XiDSDDDDDDwX#+##X>CDDDDDDDvO<DDDDDDDDDDDDDDS;O@@@@@@@@@@@+%VD2o#@@@@FFF",
"FFF@@@@#.yDjO##@@@@@@@#@@@bDDDDDDDDDDDDDZ:O#@@@@@@@@@@@#oiDDDDDDDDwX#@@#.>CDDDDDDDx#+X4DDDDDDDDDDDDDDhO@@@@@@@@@@@#.aDso#@@@@FFF",
"FFF@@@@@#nD7.#@@@@@@@@@#.9DDDDDDDDDDDDDD3.#@@@@@@@@@@#@XiDDDDDDDDwX####X>CDDDDDDDx#O##XwDDDDDDDDDDDDDD>O#@@@@@@@@@#O<DV%+#@@@FFF",
"FF@@@@#O>DV%+@@@@@@@@@@@@bDDDDDDDDDDDDDy.#@@@@@@@@@@@#XpDDDDDDDDwX####O>CDDDDDDDx#+#@@#ojDDDDDDDDDDDDDho#@@@@@@@@@@@@bD6o#@@@@FF",
"FF@@@@#.yDgo#@@@@@@@@@#o3DDDDDDDDDDDDDxO##@@@@@@@@@@@oiDDDDDDDDwX#@@#X>CDDDDDDDx#+#@@@#+%BDDDDDDDDDDDDS-O@@@@@@@@@@#oiDs.#@@@@FF",
"FF@@@@#OxD7.##@@@@@@@@#okDDDDDDDDDDDDS>O@@@@@@@@@@#@OiDDDDDDDDwX#@@#X>CDDDDDDDx#O#@@@@@#X7DDDDDDDDDDDDDi.#@@@@@@@@@#o1Dm###@@@FF",
"FF@@@#O*SS-O##@@@@@@@#O-ADDDDDDDDDDDDi.#@@@@@@@@@#@XiDDDDDDDDw.#@@#X>CDDDDDDDx#+#@@@@@@@#OlDDDDDDDDDDDDm#+@@@@@@@@@#@%VD:O#@@@@F",
"F@@@@#o3Dv+#@@@@@@@@@#.rDDDDDDDDDDDDZ*@@@@@@@@@@@@XpDDDDDDDDw.$+@#o>CDDDDDSDx#O#@@@@@@@@#o,DDDDDDDDDDDDD3O##@@@@@@@@#OjDqX#@@@@F",
"F@@@@$.iDs.#@@@@@@@@@#+xDDDDDDDDDDDDu.#@@@@@@@@@#OpDDDDDDDDe.#+##o>ZDDDDDDDx#O#@@@@@@@@@@#okDDDDDDDDDDDDd.#@@@@@@@@@#.rDfo##@@@F",
"F@@@@@OlD8.#@@@@@@@@@+-ADDDDDDDDDDDS=O@@@@@@@@@#opDDDDDDDDw.#@@#o>CDDDDDDDx#+#@@@@#@@@@@@#o2DDDDDDDDDDDDM#@#@@@@@@@@#o1Dn#@@@@@F",
"F@@@#+$VD>O#@@@@@@@@#.8DDDDDDDDDDDDhO@@@@@@@@@#opDSDDDDDDw.#@##X>ZDDDDDDDx#O#@@@@@@@@@@@@@#@bDDDDDDDDDDDD>O#@@@@@@@@#O*SA*O@@@@F",
"F@@@+O-DC%O#@@@@@@@@#.dDDDDDDDDDDDD3o#@@@@@@#@XpDDDDDDDDw.#@@#X,ZDDDDDSDx#O#@@@@@@@@@@@@@@#XtDDDDDDDDDDDDe.#@@@@@@@@@@#mD1O#@@@@",
"@@@@@O3DvO#@@@@@@@@##@bDDDDDDDDDDDV$@@@@@@@@@OpDDDDDDDDw.#@@#O>ZDDDDDDDx#O#@@@@@@@@@@@@@@@#o:DDDDDDDDDDDDgo#@@@@@@@@@#ojD9X#@@@@",
"@@@@$.wDgO#@@@@@@@@#O*ZDDDDDDDDDDDho#@@@@@@#oaDDDDDDDDw.#@@#.,ZDDDDDDDx@O#@@@@@@@@@@@@@@@@@@#nDDDDDDDDDDDb@#@@@@@@@@##.iDi.##@@@",
"@@@@#.iDi.#@@@@@@@@#O<DDDDDDDDDDDDe.#@@@@#+OiDDDDDDDDw.##@#O>ZDDDDDSDx@+#@@@@@@@@@@@@@@@@@@#XfDDDDDDDDDDDA*O#@@@@@@@##owDfo#@@@@",
"@@@@@XgDwX#@@@@@@@@#O7DDDDDDDDDDDD1O#@@@@@opDDDDDDDDw.#@@#X,ZDDDDDDDl#O#@@@@@@@@@@@@@@@@@@@@+-733733633364%+@@@@@@@@@#.6DlO@@@@@",
"@@@@#OkD8X#@@@@@@@@#.rDDDDDDDDDDDZ*O@@@@@OpDDDDDDDDqX#@@#X,ZDDDDDDDx#O#@@@@@@@@@@@@@@@@@@@@@#OXXO.O.ooooXX+@@@@@@@@@@#O2Db+#@@@@",
"@@@@@@vD2O@@@@@@@@##.sDDDDDDDDDDDm#@#@@#OpDSDDDDDDw.#@@#o,ZDSDDDSDx@+#@@@@@#@@@@@@@@@@@@@@@@###############@@@@@@@@@@#o:DB#@#@@@",
"@@@@@@bD1X#@@@@@@@+#ojDSDDDDDDDDDxO#@#@OpDDDDDDDDqo#@@#o,ZDDDDDDDx#O#@@@@@@#@@@@@@@@@@@@@@@@##@@#@@#@@@#@#@@@@@@@@@@@#O;DB%+#@@@",
"@@@@@@nD1o#@@@@@@@@#OkDDDDDDDDDDDkO#@#oaDDDDDDDDq.#@@#o,ZDDDDDSDx@+#@@@############################$#######@@@@@@@@@@#O:DV%@@@@@",
"@@@@@@mD<O#@@@@@@@@#OkDDDDDDDDDDDj.##XaDDDDDDDDq.#@@#o,ZDDDDDDDx@O#@@@#OX..o.o..X.XXXXXXXXXX.X..XXX.XX....O#@@@@@@@@@@O=DZ%O#@@@",
"@@@@@@mD1o#@@@@@@@@@OxDDDDDDDDDSDhO#oiDDDDDDDDw.#@@$.,ZDDDDDDDx@+#@@##o>iyyyuyuuuyuyuuyyuyuuuyuyuuyyuyuuyi3O#@@@@@@@@#O=SA*O#@@@",
"@@@@@@nD<o#@@@@@@@@#OlDSDDDDDDDDDjoOaDDDDDDDDq.#@##.,ZDDDDDDDl@O#@@@#o>CDDDDDDDDDDDDDDDDDDDDDDDDDDDDDDDDDDs.#@@@@@@@+#O:DV$+@@@@",
"@@@@@@bD1o#@@@@@@@@#XjDDDDDDDDDDDk.aDDDDDDDDq.##@#o,ZDDDDDDDx@@@@@@#o>CDDSDDSDDSDSSDDSDDSDDSDSSDDSDDSDDSSDyo#@@@@@@@@#O:DB$+#@@@",
"@@@@@+bD2o#@@@@@@@@#ogDDDDDDDDDDS1iDDDDDDDDq.$@@$X,ZDDDDDDDl@O#@@@#o>CDDDDDDDDDDDDDDDDDDDDDDDDDDDDDDDDDDDDr.##@@@@@@++O:DV$+@@@@",
"@@@@#okD8.##@@@@@@@#.iDDDDDDDDDS<yDDDDDDDD0.#@@#.<ZDDDDDSDl@O#@@@#o,CDDDDDDDDDDDDDDDDDDDDDDDDDDDDDDDDDDDDD8.#@@@@@@@@#O1Db+@@@@@",
"@@@@#ohD0o##@@@@@@##owDDDDDDDDA<yDDDDDDDD0.#@##o<ZDDDDDDDx@+#@@@#o>CDDDDDDDDDDDDDDDDDDDDDDDDDDDDDDDDDDDDDD2O#@@@@@@@@#X4DxO@@@@@",
"@@@@#oiDi.##@@@@@@@#.6DDDDDDDA,yDDDDDDDDw.##@#o,ZDDDDDDDl@+#@@@#o,CDDDDDDDDDDDDDDDDDDDDDDDDDDDDDDDDDDDDDDD-O#+@@@@@@@#oqDgO#@@@@",
"@@@@#.wDgX#@@@@@@@@#O:DDDDDDS<yDDDDDDDDw.#@#$.<ZDDDDDDDl@+#@@@#o,CDDDDDDDDDDDDDDDDDDDDDDDDDDDDDDDDDDDDDDDB%+##@@@@@@@#.iDi.#@@@@",
"@@@@#.3DxO#@@@@@@@@#+$VDDDDA<uDDDDDDDD0.#@@$.<ZDDDDDDDx@@@@@@#o>ZDSDDDDDDDDDDDDDDDDDDDDDDDDDDDDDDDDDDDDDDxO#@@@@@@@@@#ojDq.#@@@@",
"F@@@#O:DV%+#@@@@@@@@@OlDDDZ<yDDDDDDDD0.#@##X1ZDDDDDDDk@O#@@@@O2ZDDDDDDDDDDDDDDDDDDDDDDDDDDDDDDDDDDDDDDDDDa.#@@@@@@@@@@@nD2O#@@@@",
"F@@@#O%ZD:O#@@@@@@@@#.iDDA<yDDDDDDDDq.$@@#o<ZDDDDDSDl@+#@@@@O*lvxcccxxxcxccccxxcccccxxxxxxxxZDDDDDDDDDDDD7O#+#@@@@@@#O*ZD=O#@@@F",
"F@#@@@OxD7.#@@@@@@@@#O1DA,uDDDDDDDD7.#@@$.<ZDDDDDDDl#O#@@@@@@#@OOOOOOOO@OOOOOOOOOOOOOO+OO+O$VDDDDDDDDDDDS=O##@@@@@@@@O<Dm#+@@@@F",
"F@@@@#.aDio#@@@@@@@@#O&M1yDDDDDDDD503o##.<ADDDDDDDl@+#@@@@@@@@@#@@@#@#@##@#@@@@##@@#@#@###OwDDDDDDDDDDDDx+#+@@@@@@@@#.eDhO#@@@@F",
"F@@@@#o7DxO#@@@@@@@@@##$iDDDDDDDD79DkO$.<ZDDDDDDDk@+#@@@@@@@@@@@@@@@@@@@@@@@@@@@@@@@@@@@@@#mDDDDDDDDDDDDy.#@@@@@@@@@#ohDw.#@@@@F",
"FF@@@#O-SA*O#@@@@@@@@+OpDDDDDDDD79DDD1.2ZDDDDDDDl@O#@@@@@@@@@@@@@@@@@@@@@@@@@@@@@@@@@@@@#.0DDDDDDDDDDDDS:O#@@@@@@@@@O$BD>O#@@@@F",
"FF@@@@@OcD7o#@@@@@@@@OsDDDDDDDD6qDDDDx#NDDDDDDDl@O#@@@@@@@@@@@@@@@@@@@@@@@@@@@@@@@@@@@@@@%BDDDDDDDDDDDDxO#@@@@@@@@@#O,DN$+#@@@FF",
"FF@@@@#.uDsO#@@@@@#@osDDDDDDDD6qDDDDDD79DDDDDDl@@#@@@@@@@@@@@@@@@@@@@@@@@@@@@@@@@@@@@@@#.aDDDDDDDDDDDDD9X#@@@@@@@@@#.iDfo#@@@@FF",
"FF@@@@#O<DB$+@@@@@@osDDDDDDDD60DDDDDDDC&jDSDDk@O#@@@@@@@@@@@@@@@@@@@@@@@@@@@@@@@@@@@@@#o2DDDDDDDDDDDDDN$+#@@@@@@@@@@+vD7o#@@@@FF",
"FFF@@@#@#MD3o#@@#@osDDDDDDDD6qDDDDDDDDDx%BDDk@@@@@@@@@@@@@@@@@@@@@@@@@@@@@@@@@@@@@@@@#O%NDDDDDDDDDDDDDtX##@@@@#@@@#O>DZ*O@@@@@FF",
"FFF@@@@#oiDfo#@@@osDDDDDDDD30DSDDDDDDDDDi*SxO@#@@@@@@@@@@@@@@@@@@@@@@@@@@@@@@@@@@@@@@@OxDDDDDDDDDDDDDB%+#+@@@@+#@@#.iDfo##@@@FFF",
"FFF@@@@#o,DZ*O#@#fDDDDDDDD9wDDDDDDDDDDDDDq*&O#@@@@@@@@@@@@@@@@@@@@@@@@@@@@@@@@@@@@@##OsDDDDDDDDDDDDDDr.#@@@@#+#+@#@#MD5o#@@@@FFF",
"FFFF@@@@@@xDw.#@#zDDDDDDD8#ZDDDDDDDDDDDDDD9.##@@@@@@@@@@@@@@@@@@@@@@@@@@@@@@@@@@@+#+.aDDDDDDDDDDDDDDM###@@@@+#+#@#X7Dm#@#@@@@FFF",
"FFFF@@@@#X9Db###O+kDDDDD9oOtDDDDDDDDDDDDDDDe.##@@@@@@@@@@@@@@@@@@@@@@@@@@@@@@@@@@#+OaDDDDDDDDDDDDDDD6X#@@@@@#+#@@@OkDt.#@@@@FFFF",
"FFFF@@@@#+%BD6X##++kDDD9.#@#bDDDDDDDDDDDDDDDpOO#@@@@@@@@@@@@@@@@@@@@@@@@@@@@@@@@#O#kDDDDDDDDDDDDDDDho#@@@@@@+#+@#O,DA=+#@@@@FFFF",
"FFFFF@@@##.yDxO#@#++kD8X###O>SDDDDDDDDDDDDDDDl*.@@@@@@@@@@@@@@#@@@@@@@@@@@@@@@##X>mDDDDDDDDDDDDDDDV*O#@@@@@@@@@@@OjDsX#@@@@FFFFF",
"FFFFF@@@@#+*ZD3o#@#O%2o#@+#O*tDDDDDDDDDDDDDDDDZ8OO##@@@@@@@@@@@@@@@@@@@@@@@@##oOeADDDDDDDDDDDDDDDD5X#@@@@@@@@@@#O,DS>O#@@@@FFFFF",
"FFFFFF@@@@#.iDx@##@#@o#@@#o1SrdDDDDDDDDDDDDDDSDDl:.O###@@@@@@@@@@@@@@@@@@@#@Oo1bDDDDDDDDDDDDDDDDDuX#@@@@@@@@@@@#XjDfo#@@@@@FFFFF",
"FFFFFF@@@@@+%VD8.#@@@#@@#.1ZDD8xDDDDDDDDDDDDDDDDDSg>O.O###@@@@@#@@@@@@###OoO1lDDSDDDDDDDDDDDDDDDjO#@@@@@@@@@@@#o2DA-O#@@@@FFFFFF",
"FFFFFFF@@@@#.wDN%+#@@@@#+2ZDSDV3mDDDDDDDDDDDDDDDDDDSl7%o.OO@########@OO.O*qcDDDDDDDDDDDDDDDDDDDb#O#@@@@@#+#@+#+#bDi.#@@@@@FFFFFF",
"FFFFFFF@@@@###bDi.##@+#+%MDDDDDm7VDDDDDDDDDDDDDDDDDDDDVhw,%Ooo.XXo.OO*<elZDDDDDDDDDDDDDDDDDDDDM%O#@@@@@@+#+##$.eDB&+#@@@@FFFFFFF",
"FFFFFFFF@@@@#X2DD<o#@@@#O3ADDDSDu>ZDDDDDDDDDDDDDDDDDDDDDDDVvhsiyuiskbZDDDDDDDDDDDDDDDDDDDDDSDM*O##@@@@@@#+#+#O=ZD8.$@@@@@FFFFFFF",
"FFFFFFFF@@@@@#OsDn#+#@@##.2ADDDj$.>CDDDDDDDDDDDDDDDDDDDDDDDDDDDDDDDDDDDDDDDDDDDDDDDDDDDDDDDDm%O#@@@@@@@@+#+#+OlDkO#+@@@@FFFFFFFF",
"FFFFFFFFF@@@@#+%mDi.$+#+##X2ADk+O#o-mDDDDDDDDDDDDDDDDDDDDDDDDSDDDSDDDDDDDDDDDDDDDDDDDDDDDDDx$O#@@@@@@@@@@@@#.eDV-O#@@@@FFFFFFFFF",
"FFFFFFFFF@@@@@#X3DD7.#+#+##.4h++#+#O$kDSDDDDDDDDDDDDDDDDDDDDDDDDDDDDDDDDDDDDDDDDDDDDDDDDDDsOO#@@@@@@@@@@@@#O<SD9.#@@@@@FFFFFFFFF",
"FFFFFFFFFF@@@@@#XyDC-O#@#+##+o+#@@##+oyDDDDDDDDDDDDDDDDDDDDDDDDDDDDDDDDDDDDDDDDDDDDDDDDDZ9.##@@@@@@@@@@@@#@%MDdO#@#@@@FFFFFFFFFF",
"FFFFFFFFFFF@@@@##OxDb#+#+#+####+@#+@##X1mDDDDDDDDDDDDDDDDDDDDDDDDDDDDDDDDDDDDDDDDDDDDDDx-.##@@@@@@@@@@@@#@OlDn#@@@@@@@FFFFFFFFFF",
"FFFFFFFFFFF@@@@@#O*MDhO+#+#++#+#@@@@@@#o#iSDDDDDDDDDDDDDDDDDDDDDDDDDDDDDDDDDDDDDDDDDDZw+O#@@@@@@@@@@@@@@#oaDZ-O#@@@@@FFFFFFFFFFF",
"FFFFFFFFFFFF@@@@@#o>ZDaO##+##+#+@@@@@@###.;kDDDDDDDDDDDDDDDDDDDDDDDDDDDDDDDDDDDDDDDSd*.###@@@@@@@@@@@@##.yDS2X#@@@@@FFFFFFFFFFFF",
"FFFFFFFFFFFFF@@@@@#o3SDyX##++#+#@@@@@@@@##Oo1lDDDDDDDDDDDDDDDDDDDDDDDDDDDDDDDDDDDSg:.+#@@@@@@@@@@@@@###.qDDq.$@@@@@FFFFFFFFFFFFF",
"FFFFFFFFFFFFF@@@@@##.9DDrX@##+#+@@@@@@@@@@##oo,dZDDDDDDDDDDDDDDDDDDDDDDDDDDDDDDVp-.O###@@@@@@@@@@@@@##.0DDe.#@@@@@@FFFFFFFFFFFFF",
"FFFFFFFFFFFFFF@@@@@@#XwDDyo@##+#@@@@@@@@@@@@##OX*qxADDDDDDSDDDDDDDDDDSDDDDDDZj8$.O##@@@@@@@@@@@@@@@@#X0DDuo#@@@@@@FFFFFFFFFFFFFF",
"FFFFFFFFFFFFFFF@@@@@##XwDDsO+##+@@@@@@@@@@@@@+##O.O=8smSDDDDDDDDDDDDDDDDZva7%O.+##@@#@@@@@@@@@@@@@#@oyDDuo@@@@@@@FFFFFFFFFFFFFFF",
"FFFFFFFFFFFFFFFF@@@@#@#X8SDj#o#@@@@@@@@@@@@@@@@@##@OXO@=2wajzbmmmmvlha0<*+.XO####@@@@@@@@@@@@@@@##OOsDDeo##@@@@@FFFFFFFFFFFFFFFF",
"FFFFFFFFFFFFFFFFF@@@@@@#X3CDn-X#@@@@@@@@@@@@@@@@@@@@##@OO..OO@#@##+Oo..OO#$#@@@@@@@@@@@@@@@@@@@@#o%xDS9X#@@@@@@FFFFFFFFFFFFFFFFF",
"FFFFFFFFFFFFFFFFFF@@#+#@#X:NDC6X+##@@@@@@+#+@@@@@@@@@@@#@###@@@@+@@######@@@@@@@@@@@@@@@@@@@@@#@.2NDV2X#@@@@@@FFFFFFFFFFFFFFFFFF",
"FFFFFFFFFFFFFFFFFFF@+#+##$o%zDDi#o##@@@@@#+#@@@@@@@@@@@@@@@@@@@@@@@@@@@@@@@@@@@@@@@@@@@@@@@@##O+ySDb=o#@@@@@@FFFFFFFFFFFFFFFFFFF",
"FFFFFFFFFFFFFFFFFFFF#+@@###OOiDDm,.+#@@@#+#+@@+#@@@@@@@@@@@@@@@@@@@@@@@@@@@@@@@@@@@@@@@@@@@#+.;xDDd@O#@@@@@@FFFFFFFFFFFFFFFFFFFF",
"FFFFFFFFFFFFFFFFFFFFF@@@@@+##X2MDSa%.###+#+##+#+@@@@@@@@@@@@@@@@@@@@#@@@@@@@@@@@@@@@@@@@@##o#yADV7o@#@@@@@@FFFFFFFFFFFFFFFFFFFFF",
"FFFFFFFFFFFFFFFFFFFFFF@@@@@@##o$dDDB8+X##@@#+#+#@@@@@@@@@@@@@@@@@@@@@@@@@@@@@@@@@@@@@@@#@oO3mDDj*X##@@@@@@FFFFFFFFFFFFFFFFFFFFFF",
"FFFFFFFFFFFFFFFFFFFFFFF@@@@@@@#+.1nDDv3Oo@#@#+#+@@@@@@@@@@@@@@@@@@@@@@@@@@@@@@@@@@@@##@OO1xDDm7oO#@@@@@@@FFFFFFFFFFFFFFFFFFFFFFF",
"FFFFFFFFFFFFFFFFFFFFFFFF@@@@@@@@#O@eVDDv3@.+$###@@@@@@@@@@@@@@@@@@@@@@@@@@#@@@@@@@##+.+2lDDZy$o###@@@@@@FFFFFFFFFFFFFFFFFFFFFFFF",
"FFFFFFFFFFFFFFFFFFFFFFFFFF@@@@@@##@.%iZDDnw*.o+##@#@@@@@@@@@@@@@@@@@@@@@@@@@@@###+Oo%9vDDAa*.@#@@@@@@@FFFFFFFFFFFFFFFFFFFFFFFFFF",
"FFFFFFFFFFFFFFFFFFFFFFFFFFF@@@@@@@@#@.*yBDDZf3$.o+#####@@@@@@@@@@@@@@@##@#####+XX#1aCDDZi-.+##@@@@@@@FFFFFFFFFFFFFFFFFFFFFFFFFFF",
"FFFFFFFFFFFFFFFFFFFFFFFFFFFFF@@@@@@@##+.$0xDDDBs3*O..O+#####@######@#####@O..O*2aMDDDbw%.O#@@@@@@@@FFFFFFFFFFFFFFFFFFFFFFFFFFFFF",
"FFFFFFFFFFFFFFFFFFFFFFFFFFFFFF@@@@@@@@##+.+>iMDDDSxi7-$OOXXXOoOOOoOOX.o.o#-6ykZDDDVa<@.@##@@@@@@@@FFFFFFFFFFFFFFFFFFFFFFFFFFFFFF",
"FFFFFFFFFFFFFFFFFFFFFFFFFFFFFFFF@@@@@@@@###O.$1ivSDDDDBxdy07<,>,,,>,79yfxBDDDDDmp2$.O@#@##@@@@@@FFFFFFFFFFFFFFFFFFFFFFFFFFFFFFFF",
"FFFFFFFFFFFFFFFFFFFFFFFFFFFFFFFFFF@@@@@@@@@##+O.+-7pxZDDDDDDDDDDDDDDDDDDDDZcs8-@XOO##@@@@@@@@@FFFFFFFFFFFFFFFFFFFFFFFFFFFFFFFFFF",
"FFFFFFFFFFFFFFFFFFFFFFFFFFFFFFFFFFFF@@@@@@@@@###@OO.O%:3eahlnmmmmmmmxhae6>%+XoO@###@@@@@@@@@FFFFFFFFFFFFFFFFFFFFFFFFFFFFFFFFFFFF",
"FFFFFFFFFFFFFFFFFFFFFFFFFFFFFFFFFFFFFF@@@@@@@@@@@@###+OXXXXO@@####@@Oo.OoOO@###@@@@@@@@@@@FFFFFFFFFFFFFFFFFFFFFFFFFFFFFFFFFFFFFF",
"FFFFFFFFFFFFFFFFFFFFFFFFFFFFFFFFFFFFFFFF@@@@@@@@@@@@+#######@@+@@@@@@@#####@#@@@@@@@@@@@FFFFFFFFFFFFFFFFFFFFFFFFFFFFFFFFFFFFFFFF",
"FFFFFFFFFFFFFFFFFFFFFFFFFFFFFFFFFFFFFFFFFFF@@@@@@@@@#+#@@@@@@@@@@@@@@@@@@@@@@@@@@@@@@FFFFFFFFFFFFFFFFFFFFFFFFFFFFFFFFFFFFFFFFFFF",
"FFFFFFFFFFFFFFFFFFFFFFFFFFFFFFFFFFFFFFFFFFFFFF@@@@@@+#@@@@@@@@@@@@@@@@@@@@@@@@@@@@FFFFFFFFFFFFFFFFFFFFFFFFFFFFFFFFFFFFFFFFFFFFFF",
"FFFFFFFFFFFFFFFFFFFFFFFFFFFFFFFFFFFFFFFFFFFFFFFFFF@@@@@@@@@@@@@@@@@@@@@@@@@@@@FFFFFFFFFFFFFFFFFFFFFFFFFFFFFFFFFFFFFFFFFFFFFFFFFF",
"FFFFFFFFFFFFFFFFFFFFFFFFFFFFFFFFFFFFFFFFFFFFFFFFFFFFFFF@@@@@@@@@@@@@@@@@@FFFFFFFFFFFFFFFFFFFFFFFFFFFFFFFFFFFFFFFFFFFFFFFFFFFFFFF"
};
