/* XPM */
static char *huntcoin__[] = {
/* columns rows colors chars-per-pixel */
"64 64 63 1 ",
"  c #8C4D27",
". c #8F512C",
"X c #90542F",
"o c #925632",
"O c #945935",
"+ c #965D3A",
"@ c #985F3D",
"# c #99613F",
"$ c #9A6342",
"% c #9D6847",
"& c #9F6A4A",
"* c #A06C4D",
"= c #A26F50",
"- c #A47254",
"; c #A67659",
": c #A7785A",
"> c #A97A5D",
", c #AB7E62",
"< c #AD8166",
"1 c #AF8368",
"2 c #B1866C",
"3 c #B2886F",
"4 c #B58C73",
"5 c #B78F78",
"6 c #B79078",
"7 c #BA947D",
"8 c #BB9680",
"9 c #BE9B85",
"0 c #BF9C88",
"q c #C09E89",
"w c #C3A18D",
"e c #C4A591",
"r c #C7A896",
"t c #C8AA97",
"y c #CAAD9B",
"u c #CCB09F",
"i c #CDB3A2",
"p c #D0B6A7",
"a c #D2BAAB",
"s c #D5BFB1",
"d c #D7C1B4",
"f c #D8C3B6",
"g c #DAC6BA",
"h c #DCC9BD",
"j c #DECDC2",
"k c #E0CFC5",
"l c #E1D1C6",
"z c #E3D5CB",
"x c #E5D8CF",
"c c #E6D9D1",
"v c #E9DDD6",
"b c #EADFD8",
"n c #EDE3DD",
"m c #EFE6E1",
"M c #F0E7E2",
"N c #F1EAE5",
"B c #F4EEEA",
"V c #F6F1EE",
"C c #F7F3F0",
"Z c #F9F6F4",
"A c #FAF8F6",
"S c #FEFEFE",
"D c None",
/* pixels */
"DDDDDDDDDDDDDDDDDDDDDDDDDD##@$@$$@@@$@DDDDDDDDDDDDDDDDDDDDDDDDDD",
"DDDDDDDDDDDDDDDDDDDDDD##$$$$$$@@@@$$$$$$##DDDDDDDDDDDDDDDDDDDDDD",
"DDDDDDDDDDDDDDDDDDDD##$$#Oo.O+#@$$+O.oO@$$##DDDDDDDDDDDDDDDDDDDD",
"DDDDDDDDDDDDDDDDD###$#oo$<edjcvnnvcjde1%Xo@$$##DDDDDDDDDDDDDDDDD",
"DDDDDDDDDDDDDDDD#$$+.%8hmnja04<<<140pjnmh9%X+$$#DDDDDDDDDDDDDDDD",
"DDDDDDDDDDDDDD##$@X;aNvu,$oXoOOOOOoooo$>yvNs;X+$##DDDDDDDDDDDDDD",
"DDDDDDDDDDDDD$$$X&dBg<OX+@$$$$$$$$$$$$@OXO<fBg*o$$#DDDDDDDDDDDDD",
"DDDDDDDDDDD##$+oeCg;oO$$$############$#$$$..-fCrO+$##DDDDDDDDDDD",
"DDDDDDDDDD##$o*cn1o+$$#####$#$#$$#$#$##$#Ow;oo,nv-o$##DDDDDDDDDD",
"DDDDDDDDD##$o2Ca+O$$###$#$$$#++++++#$$$#otSv*$OOiA4o$##DDDDDDDDD",
"DDDDDDDD#$$X9A7X@$#####$$+oo#&;>>;&@oo++iSAShO%$X4CwX$##DDDDDDDD",
"DDDDDDD##$XeC,X$$####$@o+>ehvCASSACvgw=4ASSn-@O@%X:Cyo$$#DDDDDDD",
"DDDDDDD#$XqC;O%#$@#$$o$qxSSSSSSSSSSSSSSxifc=+O1%+$o-CwX$#DDDDDDD",
"DDDDDD#$O3A>o$##@$$++qNSSSSSSSSSSSSSSSSSAv8+o5Sg+#%o:C6o$#DDDDDD",
"DDDDD#$+=C6o$###$$o:cSSSSSSSSSSSSSSSSSSSSSSp4SSSdO#$o3C;+$#DDDDD",
"DDDDD##OxpX$####$o8ASSSSSSSSSSSSSSSSSSSSSSniASSC3+$#$Xuv+###DDDD",
"DDDD#$Xrv+$###$$otSSSSSSSSSSSSSAACASSSSSSntCSSB,o$###$ocuX$#DDDD",
"DDD#$+*C,O$###$oySSSSSSSSSZje3;-*uffxASSmyCSSMi8O$###$+:C;+##DDD",
"DDD#$XgdX$###$o0SSSSSSSSCy-OoO+.tSAAs-acuCSSNyBS6o$###$XakX$#DDD",
"DD#$+:B-+###$O<SSSSSSSSf&o+$$%OuSSSm-+ 7ASSMyBSSC:+$####&B<O$#DD",
"DD$$XsdX$##$@$nSSSSSSAqo+$$#$ouSASm*+o8AASBtBSSSSx+####$Xago$#DD",
"DD#+*N>O$##$oySSSSSSA6o$$@$$ouSASm&@O7SSSC6NSSSSSSwo$###+;N-+$DD",
"D#$oqxO$###+-CSSSSSS7X%##$$ouSSSm&@O7SSSC1.rSSSSSSN&#####oleo$#D",
"D##Xkro$##$oiSSSSSSpo$###$oiSASn&@o7ASSZ,o%ogSSSSSSwo$##$oqlO$#D",
"D$+*M>+$@$@%NSSSSSm%@$#@$ouSASm*@O6SSSC<O$$#*BSSSSSv####$+-N*+$D",
"D$O2v@@$@$o5SSSSSS8o$#$$oiSASm*@O7SSSC<O$##$orSSSSSS1O$###+c6O$D",
"#$Xyho$#$$osSSSSSM%@#$$oiSSSm&@o7SASZ<o$###$+*CSSSSSuo$##$XfpX$#",
"#$XgiX$#@$$vSSSSSpo$$$ouSASn*@o7SSSC,o$$####$ofSSSSSzO$##$oejo$#",
"#$Oz7o$#$+-ASSSSS4O$$ouSSSm&@o7SSSZ,o$$#####$o8SASASB&+##$O4xO$#",
"##@v2O$#$O1SSSSSA-+$oiSSSn&@O7SSSC,o$$######$#%>,>,>>$###$O,n$@#",
"#@$n,O$#$o6SSSSSm%#oiSSSn&@O8SASC,o%$$$$$$$$$$#++++++#####+;N&@$",
"$@%m>+$@$o9SSSSSv#oiSASn*@o8SSSC<o%+OOOOOO+OOO+O+++++@###$+-B*+#",
"$@%m>+$#$o9SSSSSvoiSASn&@o7SSSZ,o%o7xkllllllllllllllx<O$##+;B*+#",
"#@$m>O$#$O7SSSSSduSASm&@o7SSSB,O%o7SSSSSSSSSSSSSSSSSS3O$##O;M*##",
"##@v2O$#$O3SSSSlaSSSm&@o8SSSC,o%X7SSSASSSSSSSSSSSSSSS>O$#$O,n$##",
"#$+l7o$#$+;ASSliSSSn&@O7SSSC,O%X6SSASSSSASSSSSSSSSSSC*+$#$O4cO##",
"#$Xgu.$#$@%mSkiSSSn&@O7SASC,o%+qSSSSSSSSSSSSSSSSSSSSv@###$oejo$#",
"#$Xuho$#@$OjciSSSc&@O8SSSC,O%@$9w00w000q0w00qwCSSSSSso$##$XdaX$#",
"D$o3v@###$+,dSASci2.8SSSC,o%##@oXooooooooooO 2SSSSSS6O$##$Ox6o$D",
"D$@*M;+#$#ouSSSxiSh2SASC,o$###$$$$$$$$$$$$$$#vSSSSSB&+$##+-N-+$D",
"D#$ojeo$#OiSASxiSSSunSC,o%@###$@#########$%.eSSSSSSpo$##$o9zO$#D",
"D#$owzO$+iSSSciSSSSmwN<o$$##$############$o<ASSSSSA:+$##$okrX$#D",
"DD$+&N>.7SASceSSSSSSn-o%####@###########%o;NSSSSSSao$##$+-N-+$DD",
"DD#$ogao$aSn%;ASSSSSSn;o$$####$@######$$.,BSSSSSSB*+$##$Xijo$#DD",
"DD#$+>B*++t-+XeSSSSSSSC7O+$$$######$$#OOqASSSSSSS6O$##$@&N2O$#DD",
"DDD#$ojaX$o$O0vgSSSSSSSSj,OoO##$$##Oo+2xSSSSSSSSiO$###$.ilo$#DDD",
"DDD#$+-C>+%O4SSlcSSSSSSSSSzq>%@+O#%>wcSSSSSSSSSgO#$###+;C>O$#DDD",
"DDDD#$XucO$+-cSB>lSSSSSSSSSSSNclzcBSSSSSSSSSSSh@#$###$olaX$#DDDD",
"DDDDD#$+vuX%O%j1o$fSSSSSSSSSSSSSSSSSSSSSSSSSSa+@$###%.en@@$#DDDD",
"DDDDD#$O;C3o$@O+$@OwASSSSSSSSSSSSSSSSSSSSSSC8o#$##$$o<A>O$#DDDDD",
"DDDDDD$$o6C;O$$$#$$o;jSSSSSSSSSSSSSSSSSSSSg=o$$@@$$O=C8o$#DDDDDD",
"DDDDDDD#$XeC*O$#@$@$+O2jASSSSSSSSSSSSSSAg,O+$$##$$O&NuX$$DDDDDDD",
"DDDDDDD##$.uC;X$@$@$$$OO;ekBSSSSSSSSBjw-OO$$##$@$o-Bio$##DDDDDDD",
"DDDDDDDD#$$XeA3.$$$@@@$$+oO*,6qee06>%Oo+$$##@$$$X1CyX$#$DDDDDDDD",
"DDDDDDDDD##$o4AuO+$$$@##$$$@OOooooo+@$$$###$$$+orA7X$$@DDDDDDDDD",
"DDDDDDDDDD#$$o-nc>X@$$##$###$$$$$$$$$######$@X-xm>o$$@DDDDDDDDDD",
"DDDDDDDDDDD##$+OuCs*X+$$$@@$###@#####$@$$$+X&pCp+O$##DDDDDDDDDDD",
"DDDDDDDDDDDDD#$$X-hBs:oX+$$$$$$$$$$$$$$+oO;pBk;X$$$DDDDDDDDDDDDD",
"DDDDDDDDDDDDDD##$+X,fNxe;+XXoOO+O+OOXX+-wlBg,o+$##DDDDDDDDDDDDDD",
"DDDDDDDDDDDDDDDD#$$OX*qzNvgu71>>>><6yhcNze*X+$$@#DDDDDDDDDDDDDDD",
"DDDDDDDDDDDDDDDDD##$$+oo*4ugzvmmMnvzhi4*oo+$$##DDDDDDDDDDDDDDDDD",
"DDDDDDDDDDDDDDDDDDD#$#$$+oXXO@%%&%$OXXo@$$$##DDDDDDDDDDDDDDDDDDD",
"DDDDDDDDDDDDDDDDDDDDDD##$$$$$##++@##$$$$##DDDDDDDDDDDDDDDDDDDDDD",
"DDDDDDDDDDDDDDDDDDDDDDDDDD@$####$$#$##DDDDDDDDDDDDDDDDDDDDDDDDDD"
};
