<!DOCTYPE svg PUBLIC "-//W3C//DTD SVG 20010904//EN" "http://www.w3.org/TR/2001/REC-SVG-20010904/DTD/svg10.dtd">
<svg version="1.0" xmlns="http://www.w3.org/2000/svg" width="1024px" height="1024px" viewBox="0 0 10240 10240" preserveAspectRatio="xMidYMid meet">
<g id="layer101" fill="#99613f" stroke="none">
 <path d="M4535 10229 c-49 -5 -115 -13 -145 -18 -237 -40 -403 -71 -445 -84 -27 -8 -95 -26 -150 -39 -147 -37 -444 -130 -500 -158 -11 -5 -49 -21 -85 -34 -224 -85 -572 -257 -750 -370 -261 -167 -322 -209 -424 -286 -32 -25 -71 -54 -85 -65 -214 -159 -546 -474 -726 -690 -22 -26 -47 -55 -56 -64 -32 -34 -195 -244 -252 -326 -52 -73 -197 -295 -197 -300 0 -2 -16 -29 -35 -60 -20 -30 -38 -63 -42 -73 -3 -9 -12 -24 -19 -32 -20 -24 -234 -457 -234 -474 0 -3 -11 -30 -25 -59 -50 -110 -133 -345 -175 -494 -16 -56 -31 -107 -35 -112 -11 -19 -67 -276 -96 -441 -15 -91 -34 -196 -41 -235 -19 -100 -19 -1280 0 -1380 7 -38 26 -144 41 -235 29 -165 85 -422 96 -441 4 -5 19 -56 35 -112 44 -154 126 -385 175 -494 14 -29 25 -56 25 -59 0 -21 231 -484 242 -484 4 0 8 -6 8 -12 0 -7 18 -41 40 -76 22 -34 40 -65 40 -67 0 -5 147 -228 197 -300 57 -82 220 -292 252 -326 9 -9 34 -38 56 -64 180 -216 512 -531 726 -690 14 -11 53 -40 85 -65 102 -77 163 -119 424 -286 178 -113 526 -285 750 -370 36 -13 74 -29 85 -34 30 -15 186 -67 298 -100 54 -16 102 -32 107 -35 9 -5 119 -33 325 -80 33 -8 112 -22 175 -31 63 -9 124 -20 135 -25 25 -10 155 -25 361 -40 332 -24 1181 5 1219 42 5 5 20 9 35 9 40 0 323 50 334 59 6 4 51 16 99 25 48 9 109 24 135 32 26 8 90 28 142 44 124 37 267 86 306 105 18 8 35 15 39 15 9 0 241 98 275 116 14 7 79 38 145 70 66 31 122 60 125 63 3 3 30 19 60 34 30 15 84 45 120 67 36 21 78 46 94 56 53 30 260 167 326 216 309 229 556 450 779 698 52 58 99 110 105 115 12 11 62 72 152 185 93 116 233 315 279 395 16 28 37 59 47 69 10 11 18 25 18 31 0 5 15 33 33 60 19 28 41 64 49 80 9 17 32 59 51 95 96 177 244 499 277 605 7 22 18 54 26 70 35 80 114 338 159 525 51 209 65 282 90 453 25 175 25 188 25 782 0 594 0 607 -25 782 -25 171 -39 244 -90 453 -45 187 -124 445 -159 525 -8 17 -19 48 -26 70 -33 106 -181 428 -277 605 -19 36 -42 79 -51 95 -8 17 -30 52 -49 80 -18 27 -33 55 -33 60 0 6 -8 20 -18 31 -10 10 -31 42 -47 69 -46 80 -186 279 -279 395 -90 113 -140 174 -152 185 -6 5 -53 57 -105 115 -224 249 -468 467 -782 700 -69 51 -267 182 -322 214 -17 10 -59 35 -95 56 -36 22 -90 52 -120 67 -30 15 -57 31 -60 34 -3 3 -59 32 -125 63 -66 32 -131 63 -145 70 -34 18 -266 116 -275 116 -4 0 -21 7 -39 15 -39 19 -182 68 -306 105 -52 16 -116 36 -142 44 -26 8 -87 23 -135 32 -48 9 -93 21 -99 25 -5 5 -80 20 -165 34 -85 14 -170 29 -189 35 -105 28 -349 40 -824 39 -265 -1 -521 -6 -571 -10z"/>
 </g>
<g id="layer102" fill="#b38b72" stroke="none">
 <path d="M4798 9754 c-7 -6 -183 -29 -298 -38 -19 -2 -43 -6 -52 -11 -10 -4 -25 -4 -34 -1 -9 3 -20 3 -26 0 -5 -3 -34 -8 -64 -10 -29 -2 -69 -10 -88 -18 -19 -8 -37 -12 -40 -9 -3 3 -12 0 -20 -6 -8 -7 -20 -10 -26 -6 -6 4 -17 1 -25 -5 -8 -6 -18 -9 -23 -6 -10 6 -162 -32 -178 -45 -6 -5 -13 -6 -16 -4 -3 3 -18 0 -34 -6 -16 -7 -33 -11 -37 -10 -11 2 -114 -28 -156 -47 -20 -9 -39 -15 -43 -14 -9 2 -153 -53 -180 -68 -10 -6 -24 -10 -31 -10 -61 0 -715 -331 -769 -390 -10 -11 -23 -20 -28 -20 -24 0 -330 -214 -330 -231 0 -5 -7 -9 -15 -9 -8 0 -19 -9 -25 -20 -6 -11 -17 -20 -25 -20 -8 0 -19 -9 -25 -20 -6 -11 -16 -20 -24 -20 -15 0 -215 -176 -223 -196 -3 -8 -10 -14 -17 -14 -15 0 -206 -192 -206 -207 0 -7 -9 -17 -19 -23 -36 -19 -239 -255 -257 -300 -7 -16 -22 -33 -33 -40 -12 -6 -21 -15 -21 -20 0 -5 -12 -22 -26 -37 -41 -43 -214 -306 -279 -423 -32 -58 -69 -122 -83 -143 -14 -20 -26 -49 -28 -64 -1 -15 -8 -29 -14 -31 -13 -5 -42 -60 -46 -88 -1 -12 -13 -39 -26 -60 -41 -64 -197 -457 -202 -509 -1 -11 -6 -26 -9 -33 -13 -20 -37 -105 -43 -152 -3 -24 -10 -50 -15 -56 -12 -15 -50 -164 -44 -174 3 -5 1 -12 -5 -15 -6 -4 -8 -16 -5 -26 4 -11 1 -26 -5 -34 -6 -8 -9 -19 -5 -24 3 -6 0 -21 -8 -33 -17 -27 -41 -184 -39 -250 1 -26 -2 -49 -7 -52 -5 -3 -6 -25 -4 -50 3 -24 1 -46 -5 -50 -6 -3 -8 -24 -5 -47 4 -25 1 -50 -8 -66 -20 -38 -20 -698 0 -736 9 -16 12 -41 8 -66 -3 -23 -1 -44 5 -47 6 -4 8 -26 5 -50 -2 -25 -1 -47 4 -50 5 -3 8 -26 7 -52 -2 -66 22 -223 39 -250 8 -12 11 -27 8 -33 -4 -5 -1 -16 5 -24 6 -8 9 -23 5 -34 -3 -10 -1 -22 5 -26 6 -3 8 -10 5 -15 -6 -10 32 -159 44 -174 5 -6 12 -30 15 -53 6 -51 25 -121 39 -148 6 -11 12 -29 13 -40 6 -52 162 -445 202 -509 13 -21 25 -48 26 -60 4 -28 33 -83 46 -88 6 -2 13 -16 14 -31 2 -15 14 -44 28 -64 14 -21 51 -85 83 -143 97 -174 295 -462 332 -484 8 -4 20 -21 27 -36 18 -45 221 -281 257 -300 10 -6 19 -16 19 -23 0 -15 191 -207 207 -207 6 0 13 -6 16 -14 8 -20 208 -196 223 -196 8 0 18 -9 24 -20 6 -11 17 -20 25 -20 8 0 19 -9 25 -20 6 -11 17 -20 25 -20 8 0 15 -4 15 -9 0 -17 305 -231 329 -231 6 0 19 -9 29 -20 54 -59 708 -390 769 -390 7 0 21 -4 31 -10 27 -15 171 -70 180 -68 4 1 23 -5 43 -14 42 -18 144 -49 174 -52 12 -1 27 -6 34 -10 7 -4 15 -5 18 -2 3 3 11 2 17 -3 16 -13 168 -51 178 -45 5 3 15 0 23 -6 8 -6 19 -9 25 -5 6 4 18 1 26 -6 8 -6 17 -9 21 -6 3 4 15 2 26 -4 25 -14 177 -38 194 -32 7 3 21 2 31 -2 9 -5 33 -9 52 -11 117 -9 243 -25 280 -35 46 -12 645 -12 690 0 19 6 62 13 95 16 33 3 80 8 105 11 25 3 61 7 80 8 19 2 42 6 51 10 9 4 27 6 40 4 36 -4 127 12 191 33 31 10 63 16 71 13 8 -3 18 -1 21 5 4 6 13 8 20 5 8 -3 17 0 21 5 3 6 10 9 15 6 11 -7 130 23 146 36 6 5 14 6 17 3 3 -3 12 -2 19 2 7 4 19 9 28 10 41 4 185 50 206 66 6 4 24 10 40 12 26 3 202 67 279 101 266 116 586 282 666 346 20 16 40 29 44 29 12 0 145 91 145 99 0 4 17 16 38 27 47 24 163 110 181 135 7 11 19 19 27 19 7 0 18 9 23 19 6 10 26 27 45 37 100 54 636 594 636 641 0 7 9 17 20 23 11 6 20 17 20 26 0 8 6 17 14 20 19 7 146 178 146 197 0 9 9 21 20 27 11 6 20 17 20 25 0 8 4 15 9 15 11 0 91 127 91 144 0 8 9 20 19 27 25 18 143 230 232 414 73 154 159 352 157 363 -1 4 4 21 11 37 50 124 61 157 56 165 -3 5 0 20 7 32 7 13 13 28 14 33 1 6 9 28 19 50 10 22 19 52 20 66 1 14 5 31 9 37 4 7 5 16 1 21 -3 5 0 13 6 16 5 4 8 13 5 21 -3 7 -1 16 5 20 6 3 8 12 5 19 -2 7 -1 16 4 21 13 14 39 124 33 140 -2 7 -1 19 3 26 5 7 9 34 11 61 1 26 9 57 17 70 18 27 39 170 37 259 0 37 3 69 8 72 4 3 6 28 3 55 -2 28 -1 58 3 68 4 10 7 53 6 96 -2 48 2 83 9 92 16 20 16 320 0 340 -7 9 -11 44 -9 92 1 43 -2 86 -6 96 -4 10 -5 40 -3 68 3 27 1 52 -3 55 -5 3 -8 35 -8 72 1 91 -20 242 -37 270 -8 12 -16 42 -18 65 -2 23 -6 50 -10 59 -4 9 -5 21 -2 26 6 10 -22 123 -34 136 -5 5 -6 14 -4 21 3 7 1 16 -5 19 -6 4 -8 13 -5 20 3 8 0 17 -5 21 -6 3 -9 11 -6 16 4 5 3 14 -1 21 -4 6 -8 23 -9 37 -1 14 -10 44 -20 66 -10 22 -18 45 -19 50 -1 6 -7 20 -14 33 -7 12 -10 27 -7 32 5 8 -6 41 -56 165 -7 17 -12 33 -11 37 2 11 -84 209 -157 363 -89 184 -207 396 -232 414 -10 7 -19 20 -19 28 0 19 -80 143 -91 143 -5 0 -9 7 -9 15 0 8 -9 19 -20 25 -11 6 -20 18 -20 27 0 18 -98 153 -111 153 -5 0 -9 7 -9 15 0 8 -9 19 -20 25 -11 6 -20 17 -20 25 0 8 -9 19 -20 25 -11 6 -20 16 -20 23 0 46 -538 588 -636 641 -19 10 -39 27 -45 37 -5 10 -16 19 -23 19 -8 0 -20 8 -27 19 -18 25 -134 111 -181 135 -21 11 -38 23 -38 27 0 8 -133 99 -145 99 -4 0 -24 13 -44 29 -80 64 -400 230 -666 346 -77 34 -253 98 -279 101 -16 2 -34 8 -40 12 -21 16 -165 62 -206 66 -9 1 -21 6 -28 10 -7 4 -16 5 -19 2 -3 -3 -11 -2 -17 3 -16 13 -135 43 -146 36 -5 -3 -12 0 -15 6 -4 5 -13 8 -21 5 -7 -3 -16 -1 -20 5 -3 6 -13 8 -21 5 -8 -3 -40 3 -71 13 -64 21 -155 37 -191 33 -13 -2 -31 0 -40 4 -9 4 -32 8 -51 10 -117 9 -243 25 -280 35 -37 9 -663 13 -672 3z m634 -178 c44 -14 220 -31 295 -27 23 1 44 -3 48 -9 3 -5 17 -7 31 -4 13 3 30 1 38 -5 7 -6 21 -9 30 -5 9 3 23 1 31 -6 9 -7 18 -10 21 -7 4 3 23 0 43 -8 43 -17 143 -35 154 -28 4 2 14 -1 22 -7 8 -6 19 -9 25 -5 6 4 17 2 24 -4 8 -7 18 -11 22 -10 5 1 23 -3 39 -10 33 -15 135 -41 178 -47 16 -2 43 -10 60 -18 64 -30 140 -57 145 -51 3 2 19 -4 36 -14 17 -10 42 -22 56 -26 52 -16 317 -132 380 -167 67 -36 111 -58 119 -58 6 0 30 -13 53 -29 24 -16 88 -55 142 -87 54 -33 115 -69 135 -82 20 -12 43 -25 51 -29 8 -4 17 -10 20 -14 11 -15 185 -139 196 -139 7 0 14 -7 18 -15 3 -8 12 -15 20 -15 8 0 21 -8 28 -19 7 -10 58 -56 113 -101 133 -111 428 -408 539 -542 49 -60 93 -108 98 -108 4 0 8 -7 8 -15 0 -9 7 -18 15 -21 8 -4 15 -13 15 -20 0 -8 7 -17 15 -20 8 -4 15 -11 15 -16 0 -5 34 -58 75 -116 127 -179 231 -356 351 -597 63 -126 114 -236 114 -243 0 -7 8 -32 19 -55 10 -23 31 -75 45 -115 14 -41 32 -83 38 -95 7 -12 11 -26 10 -31 -2 -4 2 -14 8 -20 5 -7 8 -15 5 -18 -6 -6 31 -117 46 -134 6 -7 8 -18 4 -24 -3 -5 -3 -16 1 -22 5 -7 9 -19 10 -28 4 -42 37 -161 45 -166 5 -3 7 -10 3 -15 -3 -5 0 -16 6 -24 6 -8 9 -19 5 -25 -4 -6 -1 -17 5 -25 6 -8 10 -18 7 -22 -8 -13 30 -243 43 -258 7 -8 10 -26 6 -39 -3 -14 -1 -28 5 -32 7 -4 9 -24 6 -55 -4 -29 -2 -51 4 -55 6 -3 10 -32 9 -63 -1 -31 -2 -59 -1 -63 1 -5 2 -150 2 -323 0 -173 -1 -318 -2 -322 -1 -5 0 -33 1 -64 1 -31 -3 -60 -9 -63 -6 -4 -8 -26 -4 -55 3 -31 1 -51 -6 -55 -6 -4 -8 -18 -5 -32 4 -13 1 -31 -6 -39 -13 -15 -51 -245 -43 -258 3 -4 -1 -14 -7 -22 -6 -8 -9 -19 -5 -25 4 -6 1 -17 -5 -25 -6 -8 -9 -19 -6 -24 4 -5 2 -12 -3 -15 -8 -5 -41 -124 -45 -166 -1 -9 -5 -21 -10 -28 -4 -6 -4 -16 -1 -22 3 -5 -1 -20 -9 -32 -14 -22 -48 -127 -51 -158 -1 -8 -7 -25 -13 -37 -7 -12 -24 -54 -38 -95 -14 -40 -35 -92 -45 -115 -11 -23 -19 -48 -19 -55 0 -7 -51 -117 -114 -243 -120 -241 -224 -418 -351 -597 -41 -58 -75 -111 -75 -116 0 -5 -7 -12 -15 -16 -8 -3 -15 -12 -15 -20 0 -7 -7 -16 -15 -20 -8 -3 -15 -12 -15 -21 0 -8 -5 -15 -10 -15 -6 0 -13 -7 -16 -15 -4 -8 -20 -30 -38 -48 -17 -18 -80 -88 -141 -156 -125 -140 -305 -316 -445 -434 -52 -44 -101 -88 -108 -98 -7 -11 -20 -19 -28 -19 -8 0 -17 -7 -20 -15 -4 -8 -11 -15 -18 -15 -10 0 -183 -122 -196 -139 -3 -3 -25 -17 -50 -30 -25 -14 -58 -34 -75 -46 -37 -28 -228 -138 -315 -182 -36 -18 -72 -37 -80 -41 -59 -33 -327 -151 -380 -167 -14 -4 -39 -16 -56 -26 -17 -10 -33 -16 -36 -14 -5 6 -81 -21 -145 -51 -17 -8 -44 -16 -60 -18 -43 -6 -145 -32 -178 -47 -16 -7 -34 -11 -39 -10 -4 1 -14 -3 -22 -10 -7 -6 -18 -8 -24 -4 -5 3 -16 3 -22 -2 -7 -4 -31 -9 -53 -10 -22 -2 -65 -10 -95 -19 -30 -9 -62 -17 -70 -17 -8 0 -21 -4 -27 -9 -7 -6 -20 -7 -29 -4 -9 4 -23 1 -30 -5 -8 -6 -25 -8 -38 -5 -14 3 -28 1 -31 -4 -4 -6 -25 -10 -48 -9 -75 4 -251 -13 -295 -27 -61 -20 -548 -20 -618 0 -52 15 -221 31 -291 28 -23 -1 -45 2 -48 8 -3 6 -17 7 -31 4 -13 -3 -30 -1 -38 5 -7 6 -20 9 -28 6 -9 -4 -42 3 -74 14 -58 19 -104 30 -154 35 -14 1 -31 5 -37 9 -6 4 -18 4 -27 1 -9 -3 -22 -1 -30 5 -8 7 -18 11 -22 10 -5 -1 -21 3 -36 9 -28 11 -140 43 -168 47 -8 1 -22 5 -30 9 -46 19 -139 49 -164 52 -16 2 -34 8 -40 13 -17 14 -258 112 -284 116 -13 2 -41 15 -62 30 -22 15 -57 33 -78 41 -22 7 -57 25 -77 39 -21 14 -45 25 -53 25 -9 0 -38 15 -66 34 -28 19 -96 60 -150 92 -55 33 -116 69 -135 81 -20 13 -43 26 -51 30 -8 4 -19 12 -25 18 -17 20 -111 82 -133 89 -12 4 -27 16 -32 27 -6 10 -16 19 -22 19 -6 0 -16 6 -22 13 -6 8 -51 47 -100 87 -49 41 -117 99 -150 130 -34 32 -71 60 -84 64 -12 4 -22 14 -22 22 0 8 -8 17 -17 21 -24 8 -123 104 -123 119 0 6 -18 26 -40 45 -22 19 -40 40 -40 47 0 6 -7 12 -15 12 -8 0 -15 6 -15 13 0 6 -30 46 -66 87 -37 41 -93 110 -127 153 -33 42 -64 77 -69 77 -4 0 -8 4 -8 10 0 5 -48 80 -106 167 -162 240 -277 450 -404 738 -29 66 -59 129 -67 141 -7 11 -11 23 -8 26 3 3 -9 43 -26 89 -17 46 -37 107 -44 134 -8 28 -22 68 -31 90 -10 22 -17 44 -16 49 2 4 -2 14 -9 22 -6 7 -8 17 -5 22 6 10 -22 111 -35 128 -5 6 -7 18 -3 27 3 8 0 18 -5 22 -6 3 -9 11 -5 16 3 5 0 16 -6 24 -7 8 -9 22 -6 31 3 9 3 21 -1 27 -5 7 -8 21 -9 32 -2 57 -18 133 -31 153 -8 14 -12 34 -9 47 3 13 1 27 -5 31 -7 4 -9 22 -6 45 3 22 1 42 -5 45 -6 4 -8 24 -5 45 3 22 2 41 -3 44 -10 6 -10 914 0 920 5 3 6 22 3 44 -3 21 -1 41 5 45 6 3 8 23 5 45 -3 23 -1 41 6 45 6 4 8 18 5 31 -3 13 1 33 9 47 13 20 29 96 31 153 1 11 4 25 9 32 4 6 4 18 1 27 -3 9 -1 23 6 31 6 8 9 19 6 24 -4 5 -1 13 5 16 5 4 8 14 5 22 -4 9 -2 21 3 27 13 17 41 118 35 128 -3 5 -1 15 5 22 7 8 11 18 9 22 -1 5 6 27 16 49 9 22 23 63 31 90 7 28 27 88 44 134 17 46 29 86 26 89 -3 3 1 15 8 26 8 12 38 75 67 141 127 288 242 498 404 738 58 87 106 162 106 167 0 6 4 10 8 10 5 0 36 35 69 78 34 42 90 111 127 152 36 41 66 81 66 88 0 6 7 12 15 12 8 0 15 6 15 13 0 6 18 27 40 46 22 19 40 39 40 45 0 15 99 111 123 119 9 4 17 13 17 21 0 9 11 18 25 22 14 3 29 11 33 18 9 14 157 144 240 211 34 28 62 53 62 58 0 4 7 7 15 7 8 0 19 9 25 19 5 11 20 23 32 27 22 7 116 69 133 89 6 6 17 14 25 18 8 4 31 17 51 30 19 12 80 48 135 81 54 32 122 73 150 92 28 19 57 34 65 34 8 0 39 16 69 35 30 19 62 35 71 35 8 0 37 14 62 31 26 17 57 32 69 34 21 3 193 73 272 110 19 9 45 18 58 20 20 3 116 34 158 51 8 4 22 8 30 9 28 4 140 36 168 47 15 6 31 10 36 9 4 -1 14 3 22 10 8 6 21 8 30 5 9 -3 21 -3 27 1 6 4 23 8 37 9 50 5 96 16 154 35 32 11 65 18 74 14 8 -3 21 0 28 6 8 6 25 8 38 5 14 -3 28 -2 31 4 3 6 25 9 48 8 69 -3 247 14 291 28 61 19 560 19 618 0z"/>
 <path d="M4935 8549 c-16 -5 -52 -7 -78 -4 -26 3 -53 2 -60 -2 -6 -4 -30 -8 -52 -9 -45 -1 -125 -13 -275 -39 -14 -3 -41 -7 -61 -9 -21 -3 -64 -14 -98 -26 -33 -11 -71 -20 -85 -20 -14 0 -28 -5 -31 -10 -4 -6 -10 -8 -15 -5 -4 3 -73 -17 -153 -45 -143 -48 -191 -67 -292 -115 -27 -12 -61 -28 -75 -34 -14 -6 -32 -15 -40 -20 -8 -4 -42 -21 -75 -36 -33 -15 -102 -52 -154 -84 -52 -31 -108 -64 -125 -75 -70 -41 -216 -148 -216 -156 0 -6 -7 -10 -15 -10 -9 0 -18 -7 -21 -15 -4 -8 -12 -15 -20 -15 -7 0 -21 -11 -30 -25 -9 -14 -22 -25 -30 -25 -7 0 -21 -11 -30 -25 -9 -14 -22 -25 -30 -25 -7 0 -28 -18 -45 -40 -18 -22 -37 -40 -43 -40 -15 0 -186 -172 -186 -186 0 -6 -18 -25 -40 -43 -22 -17 -40 -37 -40 -43 0 -5 -11 -19 -25 -30 -14 -11 -25 -26 -25 -34 0 -8 -5 -14 -10 -14 -27 0 -310 -415 -310 -455 0 -13 130 -150 363 -385 199 -200 365 -366 369 -368 4 -2 24 31 43 74 73 160 205 371 316 504 27 33 49 61 49 64 0 3 23 26 50 52 28 26 50 53 50 60 0 8 6 14 14 14 8 0 39 27 69 60 29 33 59 60 65 60 6 0 19 11 30 25 11 14 25 25 31 25 6 0 16 9 23 20 7 11 19 20 26 20 7 0 15 7 18 15 4 8 10 15 15 15 5 0 50 28 101 63 155 104 353 206 468 242 30 10 64 23 75 29 11 7 45 18 75 25 30 8 59 16 65 19 5 3 16 7 25 7 8 1 53 12 100 23 95 24 153 34 190 34 14 0 30 4 37 9 6 6 27 7 47 4 19 -4 40 -4 46 0 13 8 388 9 410 1 8 -3 31 -5 50 -5 19 0 49 -2 65 -5 39 -7 88 -14 150 -22 28 -4 55 -10 60 -14 9 -7 105 -33 130 -36 6 0 17 -3 25 -6 8 -3 51 -18 95 -33 44 -15 98 -35 120 -45 141 -62 275 -128 311 -152 23 -15 45 -28 48 -28 7 0 85 -54 162 -112 28 -21 53 -38 55 -38 3 0 34 -27 69 -60 36 -33 68 -60 73 -60 9 0 167 -158 167 -167 0 -5 24 -34 53 -65 28 -31 57 -63 62 -71 6 -9 46 -68 91 -134 93 -135 155 -247 213 -383 23 -52 45 -102 50 -110 7 -13 -130 -15 -1215 -12 -877 1 -1224 -1 -1224 -9 0 -13 323 -339 336 -339 5 0 14 -10 19 -22 6 -13 21 -28 34 -34 13 -7 28 -22 35 -35 6 -13 21 -28 34 -34 12 -5 22 -15 22 -21 0 -13 42 -54 56 -54 5 0 14 -10 19 -22 6 -13 21 -28 34 -34 13 -7 28 -22 35 -35 6 -13 22 -29 35 -35 13 -7 28 -22 35 -35 6 -13 22 -29 36 -36 13 -6 27 -21 31 -31 4 -11 22 -27 40 -36 29 -14 163 -16 1409 -16 l1377 0 6 121 c5 77 3 126 -3 134 -6 7 -7 32 -4 57 4 29 2 48 -5 52 -6 4 -8 18 -5 32 3 13 3 32 -1 41 -4 10 -7 30 -6 45 1 14 -2 29 -7 32 -6 3 -8 15 -5 26 3 11 0 26 -6 33 -6 8 -8 17 -4 20 3 4 1 13 -6 20 -6 8 -9 22 -5 30 3 9 2 21 -2 28 -4 7 -8 28 -10 47 -10 109 -130 466 -230 684 -125 275 -351 628 -504 789 -22 23 -40 44 -40 45 0 7 -301 304 -308 304 -5 0 -18 14 -30 30 -13 17 -29 30 -37 30 -8 0 -15 4 -15 9 0 16 -332 261 -354 261 -3 0 -25 14 -48 30 -22 17 -44 30 -49 30 -4 0 -31 16 -61 35 -29 20 -64 38 -77 42 -14 3 -40 16 -59 29 -18 13 -43 26 -55 30 -12 3 -53 21 -91 40 -38 19 -74 34 -80 34 -7 0 -36 11 -65 25 -29 14 -80 33 -114 41 -34 9 -67 20 -73 25 -16 13 -314 90 -324 84 -5 -3 -12 0 -15 6 -4 5 -14 8 -22 5 -9 -4 -21 -2 -27 2 -6 5 -18 10 -26 10 -8 0 -31 3 -50 6 -49 8 -111 17 -140 21 -14 1 -33 6 -43 10 -10 4 -31 5 -47 2 -16 -4 -32 -2 -35 3 -3 5 -34 9 -68 9 -34 0 -138 2 -232 5 -102 3 -182 1 -200 -5z"/>
 <path d="M2159 7658 l-175 -179 153 -152 c85 -84 160 -153 166 -155 11 -2 147 159 147 174 0 3 14 17 30 31 17 13 30 29 30 34 0 6 27 35 60 66 62 59 74 87 40 96 -11 3 -24 17 -30 31 -5 15 -20 30 -33 35 -14 5 -27 18 -29 29 -3 11 -18 26 -34 33 -16 8 -34 25 -41 39 -6 13 -21 28 -33 32 -11 4 -24 18 -29 31 -8 19 -36 42 -44 36 -1 -1 -81 -82 -178 -181z"/>
 <path d="M1667 7142 c-10 -10 -17 -24 -17 -30 0 -7 -6 -12 -12 -12 -16 0 -118 -102 -118 -118 0 -7 -6 -12 -13 -12 -16 0 -57 -42 -57 -58 0 -7 -6 -12 -13 -12 -21 0 -100 -88 -93 -105 3 -8 12 -15 20 -15 8 0 21 -12 28 -27 7 -15 24 -33 37 -39 13 -7 28 -22 35 -35 6 -13 21 -28 32 -33 11 -5 25 -19 30 -30 5 -11 20 -26 33 -32 13 -7 28 -22 35 -35 6 -13 22 -29 35 -35 13 -7 28 -22 35 -35 6 -13 22 -29 36 -36 13 -6 28 -21 32 -33 4 -11 17 -24 28 -28 12 -4 27 -19 33 -32 7 -14 23 -30 37 -37 13 -6 28 -21 32 -33 4 -11 19 -25 33 -30 14 -5 30 -21 35 -35 5 -14 21 -30 35 -35 14 -5 29 -19 33 -30 4 -12 19 -27 32 -33 14 -7 30 -23 36 -36 7 -13 22 -28 35 -35 13 -6 29 -22 36 -36 6 -13 21 -28 33 -32 11 -4 25 -19 30 -33 5 -14 16 -25 24 -25 8 0 713 -702 1568 -1560 l1553 -1561 59 6 c108 9 161 18 173 27 7 5 17 7 23 3 5 -3 15 -3 22 1 7 4 23 9 35 10 22 2 94 23 222 63 30 10 56 22 58 27 4 12 -2799 2814 -2815 2814 -7 0 -12 6 -12 13 0 16 -42 57 -58 57 -7 0 -12 6 -12 13 0 15 -102 117 -118 117 -7 0 -12 6 -12 13 0 15 -41 57 -56 57 -5 0 -14 10 -19 22 -6 13 -21 28 -34 34 -13 7 -28 22 -35 35 -6 13 -22 29 -35 35 -13 7 -28 22 -35 35 -6 13 -21 28 -32 33 -11 5 -25 19 -30 30 -5 11 -20 26 -33 32 -13 7 -28 22 -35 35 -6 13 -22 29 -35 35 -13 7 -28 22 -35 35 -6 13 -22 29 -36 36 -13 6 -28 21 -32 33 -4 11 -19 25 -33 30 -14 5 -30 21 -35 35 -5 14 -21 30 -35 35 -14 5 -29 19 -33 30 -4 12 -19 27 -32 33 -14 7 -30 23 -37 37 -6 13 -21 28 -33 32 -11 4 -25 19 -30 33 -5 14 -16 25 -23 25 -16 0 -57 42 -57 58 0 7 -6 12 -13 12 -7 0 -91 79 -187 175 -96 96 -180 175 -186 175 -6 0 -18 -8 -27 -18z"/>
 <path d="M3373 6717 c-24 -24 -43 -45 -43 -48 0 -3 -17 -24 -37 -45 -21 -22 -74 -91 -117 -153 l-79 -113 934 -934 c514 -513 942 -936 952 -939 9 -4 17 -13 17 -21 0 -8 15 -24 34 -35 19 -11 36 -28 39 -39 3 -11 17 -24 31 -30 15 -5 30 -19 34 -30 4 -12 19 -27 32 -33 14 -7 30 -23 37 -37 6 -13 21 -28 33 -32 11 -4 24 -17 28 -28 4 -12 19 -27 32 -33 14 -7 30 -23 36 -36 7 -13 22 -28 35 -35 13 -6 29 -22 36 -36 6 -13 21 -28 33 -32 11 -4 24 -17 28 -28 4 -12 19 -27 32 -33 14 -7 30 -23 36 -36 7 -13 22 -28 35 -35 13 -6 29 -22 35 -35 7 -13 22 -28 35 -35 13 -6 29 -22 35 -35 7 -13 22 -28 35 -35 13 -6 28 -21 34 -34 5 -12 14 -22 20 -22 15 0 115 -103 115 -118 0 -7 6 -12 13 -12 16 0 57 -42 57 -58 0 -7 6 -12 13 -12 7 0 350 -338 762 -750 412 -413 752 -750 754 -750 3 0 84 79 181 175 l175 175 -2200 2205 c-1210 1213 -2204 2206 -2210 2205 -5 -1 -29 -20 -52 -43z"/>
 <path d="M1859 6185 c-1 -3 -2 -8 -3 -12 -1 -5 -7 -17 -13 -28 -17 -31 -94 -348 -89 -367 2 -10 0 -21 -6 -24 -5 -3 -7 -17 -4 -29 3 -13 1 -27 -5 -30 -6 -4 -8 -18 -4 -32 3 -14 1 -30 -4 -37 -5 -6 -10 -27 -10 -46 -1 -63 -6 -105 -15 -118 -4 -7 -4 -41 -1 -76 5 -42 3 -66 -4 -70 -15 -10 -15 -332 0 -342 7 -4 9 -29 4 -75 -4 -37 -3 -74 1 -81 9 -13 12 -37 17 -110 1 -20 5 -40 9 -44 4 -4 5 -18 2 -31 -4 -13 -1 -29 5 -37 6 -7 9 -20 6 -28 -7 -17 33 -208 46 -224 5 -6 6 -14 3 -17 -3 -3 -2 -11 2 -18 4 -7 9 -27 11 -43 5 -48 106 -339 162 -471 59 -137 149 -310 223 -429 78 -125 178 -266 188 -266 6 0 10 -6 10 -13 0 -7 16 -30 35 -51 19 -21 35 -42 35 -47 0 -4 11 -16 25 -27 14 -11 25 -25 25 -31 0 -5 16 -23 35 -38 19 -15 35 -32 35 -38 0 -14 202 -215 217 -215 7 0 23 -15 37 -33 29 -38 148 -137 165 -137 6 0 11 -4 11 -9 0 -15 292 -221 337 -238 10 -4 32 -16 48 -28 17 -12 64 -39 105 -59 137 -68 245 -120 270 -129 14 -6 39 -16 55 -23 112 -48 193 -76 339 -119 65 -19 122 -32 127 -30 4 3 10 1 14 -4 3 -5 13 -10 23 -10 9 0 60 -9 112 -21 52 -12 113 -23 135 -25 22 -2 42 -4 45 -6 3 -1 16 -3 30 -5 14 -2 45 -6 70 -9 211 -26 574 -25 780 1 19 3 49 6 65 8 17 2 32 4 35 5 3 2 29 4 58 6 29 2 59 8 66 14 7 6 15 8 18 6 3 -3 18 -1 33 5 16 6 43 11 62 12 19 1 36 5 39 9 2 5 11 6 18 3 8 -3 17 0 21 5 3 6 11 9 16 5 6 -3 38 3 72 14 34 12 105 34 157 50 104 33 244 83 275 99 11 5 36 17 55 25 41 17 212 102 255 126 121 68 179 101 236 138 l67 42 -359 359 c-198 197 -366 359 -373 361 -8 2 -32 -7 -53 -20 -33 -21 -140 -72 -268 -128 -22 -10 -58 -24 -80 -30 -22 -7 -45 -16 -51 -21 -6 -5 -13 -7 -16 -4 -2 2 -44 -9 -94 -25 -49 -16 -103 -30 -121 -30 -17 0 -34 -4 -37 -9 -3 -5 -15 -7 -25 -4 -10 3 -22 0 -25 -6 -4 -5 -13 -8 -21 -4 -8 3 -23 2 -32 -2 -64 -27 -489 -41 -643 -21 -36 5 -74 9 -86 10 -11 1 -25 6 -32 10 -6 4 -33 9 -59 11 -27 2 -48 4 -48 5 0 2 -9 4 -20 6 -39 6 -141 33 -199 53 -33 12 -65 21 -73 21 -8 0 -43 13 -78 30 -35 17 -71 30 -79 30 -8 0 -18 5 -21 10 -3 6 -14 10 -24 10 -10 0 -24 7 -31 15 -7 9 -19 14 -26 11 -7 -3 -24 4 -38 15 -13 10 -48 32 -78 47 -29 16 -93 54 -141 85 -48 31 -92 57 -97 57 -4 0 -10 4 -12 8 -3 8 -165 142 -171 142 -5 0 -247 244 -247 250 0 3 -23 29 -50 59 -28 30 -50 55 -50 56 0 2 -38 60 -85 130 -142 213 -257 468 -320 710 -14 55 -29 107 -32 115 -3 8 -5 22 -4 32 1 9 -3 19 -8 22 -6 4 -8 13 -4 21 3 8 2 23 -2 33 -5 9 -7 27 -6 39 1 11 -2 24 -8 27 -6 4 -8 20 -4 36 3 16 2 37 -2 47 -5 10 -7 41 -6 69 2 29 -2 55 -8 58 -14 9 -15 212 -1 221 27 17 -3 155 -34 155 -6 0 -189 178 -406 395 -217 217 -395 395 -397 395 -2 0 -4 -2 -4 -5z"/>
 <path d="M7475 4655 c-95 -388 -221 -666 -427 -943 -43 -57 -78 -106 -78 -109 0 -2 -13 -16 -30 -30 -16 -13 -30 -30 -30 -36 0 -6 -19 -30 -42 -54 l-41 -42 44 -46 c24 -25 49 -45 56 -45 7 0 13 -6 13 -13 0 -16 42 -57 58 -57 7 0 12 -5 12 -12 0 -16 102 -118 118 -118 6 0 12 -6 12 -13 0 -15 41 -57 56 -57 5 0 14 -10 19 -22 6 -13 21 -28 34 -34 13 -7 28 -22 35 -35 6 -13 21 -28 34 -34 12 -5 22 -15 22 -21 0 -13 42 -54 56 -54 5 0 14 -10 19 -22 6 -13 21 -28 34 -34 13 -7 28 -22 35 -34 25 -50 39 -48 115 19 39 35 71 68 71 75 0 7 14 22 30 34 17 13 30 29 30 37 0 8 8 19 19 24 53 29 348 468 372 555 5 20 14 36 19 36 13 0 62 98 55 110 -3 5 3 17 13 27 50 49 259 648 238 682 -4 5 -2 13 4 16 6 4 10 14 9 23 -1 10 1 25 6 35 4 10 5 21 1 24 -3 3 -1 12 4 18 6 7 12 32 14 56 2 24 7 52 11 61 4 10 5 22 3 28 -4 14 -1020 19 -1023 5z"/>
 <path d="M6736 2075 c-20 -14 -43 -25 -50 -25 -7 0 -30 -11 -50 -25 -20 -14 -43 -25 -50 -25 -7 0 -25 -9 -38 -20 -14 -10 -28 -17 -30 -14 -3 3 -34 -9 -69 -26 -34 -16 -67 -30 -73 -30 -6 0 -31 -10 -56 -21 l-44 -20 269 -269 c149 -149 275 -270 281 -270 5 0 91 80 190 178 l179 177 -209 208 c-116 114 -211 207 -212 207 0 0 -18 -11 -38 -25z"/>
 </g>
<g id="layer103" fill="#fefefe" stroke="none">
 <path d="M4735 9740 c-136 -12 -315 -39 -505 -74 -245 -45 -617 -158 -895 -271 -134 -54 -435 -205 -560 -280 -452 -272 -846 -605 -1189 -1005 -311 -362 -596 -834 -761 -1260 -31 -80 -62 -161 -70 -180 -13 -30 -57 -170 -85 -265 -33 -118 -83 -329 -101 -430 -11 -66 -24 -140 -29 -165 -57 -318 -57 -1052 0 -1370 5 -25 18 -99 29 -165 18 -101 68 -312 101 -430 28 -95 72 -235 85 -265 8 -19 39 -100 70 -180 317 -819 933 -1580 1710 -2111 232 -159 560 -337 800 -434 278 -113 650 -226 895 -271 362 -67 533 -83 895 -83 283 0 386 6 595 33 327 44 714 140 1020 254 159 59 347 140 465 200 70 35 112 58 240 132 234 135 481 310 690 489 130 111 396 377 511 511 472 546 813 1215 988 1940 96 394 132 801 114 1285 -33 914 -360 1821 -928 2570 -169 224 -465 537 -685 726 -478 410 -1040 720 -1640 904 -322 99 -649 163 -995 195 -110 11 -647 10 -765 0z m730 -160 c119 -10 326 -36 410 -51 33 -6 74 -12 90 -15 97 -14 409 -96 574 -151 302 -101 611 -242 866 -396 75 -45 144 -87 153 -92 58 -35 193 -132 320 -230 432 -332 804 -753 1092 -1235 343 -576 557 -1234 610 -1879 15 -185 15 -627 0 -812 -53 -646 -266 -1303 -610 -1879 -102 -171 -140 -227 -274 -405 -538 -718 -1294 -1260 -2157 -1548 -165 -55 -477 -137 -574 -151 -16 -3 -57 -9 -90 -15 -84 -15 -291 -41 -410 -51 -129 -11 -551 -11 -680 0 -137 11 -348 38 -415 52 -30 6 -64 12 -75 13 -11 2 -76 15 -145 30 -338 73 -668 189 -990 348 -200 99 -311 160 -423 234 -40 26 -77 50 -82 53 -22 11 -116 77 -243 173 -315 236 -624 547 -867 872 -188 252 -307 445 -440 717 -219 445 -374 965 -419 1413 -9 83 -20 186 -26 231 -13 104 -13 534 0 638 6 45 17 149 26 231 16 165 69 440 115 610 125 453 303 856 552 1245 279 436 659 847 1059 1147 127 96 221 162 243 173 5 3 42 27 82 53 298 197 748 400 1133 511 136 39 367 94 425 101 11 1 45 7 75 13 65 14 279 41 400 52 121 10 576 10 695 0z"/>
 <path d="M4850 8539 c-41 -4 -106 -10 -145 -14 -93 -8 -187 -23 -260 -40 -33 -8 -98 -23 -145 -34 -398 -90 -868 -311 -1220 -575 -199 -148 -470 -409 -621 -596 -77 -96 -265 -368 -298 -433 l-15 -28 359 -359 c198 -198 365 -360 370 -360 6 0 39 57 74 128 297 596 830 1041 1483 1237 100 30 301 70 433 86 89 11 496 7 543 -4 13 -4 78 -16 145 -27 139 -24 171 -31 282 -67 278 -90 525 -219 760 -397 166 -126 403 -377 523 -553 94 -138 237 -415 258 -497 l6 -26 -1222 -2 -1221 -3 408 -407 408 -408 1383 0 1382 0 0 83 c0 45 -7 148 -15 229 -92 949 -580 1819 -1340 2388 -115 86 -167 121 -318 217 -148 94 -516 257 -717 319 -81 25 -320 84 -425 105 -195 38 -646 59 -855 38z"/>
 <path d="M2160 7655 l-175 -175 156 -156 156 -156 79 98 c43 55 116 141 162 192 l85 94 -139 139 c-76 76 -141 139 -144 139 -3 0 -84 -79 -180 -175z"/>
 <path d="M1527 6982 l-177 -178 2003 -2002 2004 -2002 49 6 c123 15 336 63 444 101 41 15 76 27 78 28 1 1 -4192 4195 -4222 4222 -1 1 -82 -78 -179 -175z"/>
 <path d="M3364 6693 c-95 -109 -244 -311 -244 -333 0 -7 4337 -4344 4348 -4348 4 -1 86 77 182 174 l175 176 -2200 2194 c-1210 1206 -2202 2194 -2205 2194 -3 0 -28 -26 -56 -57z"/>
 <path d="M1841 6103 c-46 -153 -90 -370 -116 -568 -23 -176 -23 -665 0 -784 2 -14 9 -61 16 -105 24 -182 81 -412 148 -608 320 -927 1029 -1674 1946 -2051 261 -107 489 -167 855 -223 210 -32 641 -32 850 2 19 3 89 14 156 24 289 46 635 159 929 303 107 53 338 188 383 224 l27 22 -355 355 -355 356 -90 -47 c-242 -126 -514 -214 -780 -254 -134 -20 -468 -23 -623 -5 -706 79 -1340 470 -1741 1072 -275 413 -409 875 -399 1376 l3 168 -405 405 c-223 223 -410 405 -417 405 -7 0 -21 -30 -32 -67z"/>
 <path d="M7481 4623 c-5 -21 -17 -65 -25 -98 -91 -354 -304 -743 -550 -1003 l-70 -73 350 -350 349 -350 63 68 c358 385 622 839 773 1327 41 131 121 494 112 509 -2 4 -226 7 -498 7 l-494 0 -10 -37z"/>
 <path d="M6660 2029 c-63 -32 -153 -74 -200 -93 -47 -19 -103 -42 -124 -51 l-39 -17 264 -264 c145 -145 268 -264 274 -264 13 0 345 332 345 345 0 11 -392 406 -401 404 -2 0 -56 -27 -119 -60z"/>
 </g>

</svg>